<svg version="1.1" id="Layer_1" xmlns="http://www.w3.org/2000/svg" xmlns:xlink="http://www.w3.org/1999/xlink" x="0px" y="0px"
	 width="100%" viewBox="0 0 300 300" enable-background="new 0 0 300 300" xml:space="preserve">
<path fill="#1FBBE4" opacity="1.000000" stroke="none" 
	d="
M254.000000,301.000000 
	C237.645767,301.000000 221.291550,301.000000 204.546631,300.661804 
	C211.406631,292.423462 218.544769,284.416016 225.941284,276.654816 
	C232.658081,269.606903 239.713776,262.883301 246.513611,255.912857 
	C253.215195,249.043137 259.774170,242.034500 266.412048,235.102448 
	C274.059784,227.115799 281.583801,219.002914 289.448120,211.234970 
	C292.936218,207.789627 297.127777,205.056442 301.000000,202.000000 
	C301.000000,219.020889 301.000000,236.041794 300.735352,253.191513 
	C298.838470,257.174103 297.887543,261.544556 295.436127,264.777100 
	C289.849945,272.143311 283.719482,279.128082 277.445343,285.931396 
	C272.272583,291.540466 266.011414,295.705872 258.534882,297.920593 
	C256.865662,298.415070 255.503525,299.946167 254.000000,301.000000 
z"/>
<path fill="#27FF8D" opacity="1.000000" stroke="none" 
	d="
M52.000000,0.999999 
	C67.020897,1.000000 82.041786,1.000000 97.505936,1.360491 
	C97.390671,2.900517 97.099998,4.350192 96.228607,5.214184 
	C91.766006,9.638887 86.995399,13.759166 82.624153,18.268612 
	C70.490486,30.785870 58.494675,43.436863 46.458843,56.048805 
	C42.791412,59.891788 39.244499,63.852215 35.512875,67.630959 
	C28.663872,74.566444 21.780607,81.470665 14.791250,88.264069 
	C10.305564,92.623985 5.604515,96.762337 1.000000,101.000000 
	C1.000000,84.979103 1.000000,68.958214 1.280447,52.808414 
	C2.047298,51.884323 2.634515,51.133102 3.003610,50.286755 
	C5.255338,45.123436 7.106578,39.746655 9.796376,34.826477 
	C11.671080,31.397272 14.440433,28.353966 17.221697,25.545906 
	C22.379898,20.338018 27.370577,14.757704 33.318027,10.601888 
	C38.279770,7.134844 44.527344,5.521706 50.157501,2.981251 
	C50.915359,2.639287 51.392738,1.675724 52.000000,0.999999 
z"/>
<path fill="#21CBCF" opacity="1.000000" stroke="none" 
	d="
M124.000000,301.000000 
	C118.311958,301.000000 112.623917,301.000000 106.492966,300.640320 
	C106.401772,299.362366 106.513451,298.212402 107.141907,297.561188 
	C114.250984,290.194733 121.407211,282.872986 128.615036,275.602936 
	C136.210480,267.941895 143.941925,260.414978 151.494186,252.711990 
	C162.271683,241.719360 172.957977,230.637024 183.649490,219.560425 
	C192.054276,210.852936 200.329575,202.019028 208.813766,193.390137 
	C213.910629,188.206329 219.315094,183.325851 224.547440,178.273972 
	C227.165863,175.745834 229.757935,173.186523 232.275269,170.558319 
	C238.113037,164.463470 243.884003,158.304703 249.709274,152.197800 
	C253.827072,147.880890 257.997040,143.613785 262.129913,139.311203 
	C266.600555,134.657013 271.001831,129.934891 275.531433,125.339035 
	C280.282104,120.518845 285.039551,115.695061 290.002563,111.097984 
	C293.487488,107.870026 297.321747,105.019234 301.000000,102.000000 
	C301.000000,108.021156 301.000000,114.042305 300.661804,120.609695 
	C297.920837,122.898941 295.306732,124.416878 293.160156,126.432686 
	C288.941559,130.394226 284.996643,134.646271 280.913452,138.753235 
	C274.487793,145.216339 267.945740,151.566681 261.625000,158.130478 
	C250.587219,169.592758 239.795456,181.293610 228.675262,192.674316 
	C221.968414,199.538284 214.703461,205.854416 207.929733,212.656174 
	C199.980881,220.637878 192.337479,228.922760 184.482040,236.998764 
	C170.153992,251.729126 155.781067,266.415955 141.397308,281.091980 
	C136.643799,285.942078 131.702805,290.612366 127.055496,295.560181 
	C125.673279,297.031830 124.998787,299.168213 124.000000,301.000000 
z"/>
<path fill="#26F797" opacity="1.000000" stroke="none" 
	d="
M0.999998,147.000000 
	C1.000000,139.645752 1.000000,132.291489 1.345438,124.398712 
	C3.842016,122.358643 6.304679,121.158524 8.095194,119.308037 
	C22.899063,104.008301 37.513947,88.525589 52.331169,73.238953 
	C57.395184,68.014511 63.015274,63.331894 68.133759,58.156879 
	C82.968666,43.158123 97.747536,28.102173 112.386093,12.912250 
	C115.913216,9.252280 118.812164,4.986940 122.000000,0.999999 
	C129.020950,1.000000 136.041901,1.000000 143.506409,1.359622 
	C140.449570,6.046866 137.223541,10.636733 133.390869,14.646798 
	C125.726082,22.666359 117.651543,30.292482 109.888626,38.220528 
	C100.031082,48.287758 90.372078,58.549332 80.519920,68.621918 
	C72.646408,76.671593 64.541237,84.494766 56.672058,92.548599 
	C50.636997,98.725288 44.902443,105.195602 38.867077,111.371986 
	C30.768557,119.659714 22.629034,127.915237 14.267424,135.934677 
	C10.121235,139.911179 5.439462,143.329269 0.999998,147.000000 
z"/>
<path fill="#21CECC" opacity="1.000000" stroke="none" 
	d="
M301.000000,101.539368 
	C297.321747,105.019234 293.487488,107.870026 290.002563,111.097984 
	C285.039551,115.695061 280.282104,120.518845 275.531433,125.339035 
	C271.001831,129.934891 266.600555,134.657013 262.129913,139.311203 
	C257.997040,143.613785 253.827072,147.880890 249.709274,152.197800 
	C243.884003,158.304703 238.113037,164.463470 232.275269,170.558319 
	C229.757935,173.186523 227.165863,175.745834 224.547440,178.273972 
	C219.315094,183.325851 213.910629,188.206329 208.813766,193.390137 
	C200.329575,202.019028 192.054276,210.852936 183.649490,219.560425 
	C172.957977,230.637024 162.271683,241.719360 151.494186,252.711990 
	C143.941925,260.414978 136.210480,267.941895 128.615036,275.602936 
	C121.407211,282.872986 114.250984,290.194733 107.141907,297.561188 
	C106.513451,298.212402 106.401772,299.362366 106.025032,300.640320 
	C100.977905,301.000000 95.955818,301.000000 90.543800,300.665955 
	C93.693130,296.178528 97.001778,291.797821 100.822136,287.921478 
	C107.682816,280.960175 115.022003,274.469208 121.856567,267.483612 
	C138.697922,250.270157 155.298752,232.821014 172.181351,215.648590 
	C174.574646,213.214233 174.990768,211.408875 173.187866,208.533661 
	C177.321915,207.788513 181.351624,207.831024 185.091476,206.810867 
	C187.007324,206.288269 188.782425,204.097565 189.928650,202.234680 
	C191.041580,200.425888 191.268723,198.072067 192.268112,195.958923 
	C195.570923,193.772156 198.721725,191.829773 201.361862,189.344849 
	C206.859879,184.170059 212.071777,178.692154 217.431839,173.369614 
	C221.298386,169.530121 225.321182,165.841187 229.058044,161.881058 
	C230.655487,160.188171 231.702744,157.976135 233.062469,155.721863 
	C233.416626,154.962479 233.708313,154.481247 234.347473,153.929230 
	C238.150146,150.965134 241.627167,148.096344 244.994202,145.103806 
	C245.157272,144.958878 244.353531,143.726166 244.176758,142.716980 
	C246.569000,140.622620 248.784500,138.811310 251.335968,136.922226 
	C252.258743,136.544495 252.967880,136.368240 253.414551,135.926559 
	C265.260895,124.211494 277.029663,112.417473 288.933197,100.761055 
	C292.779663,96.994476 296.968018,93.577103 301.000000,90.000000 
	C301.000000,93.692909 301.000000,97.385818 301.000000,101.539368 
z"/>
<path fill="#26FB91" opacity="1.000000" stroke="none" 
	d="
M121.531364,0.999999 
	C118.812164,4.986940 115.913216,9.252280 112.386093,12.912250 
	C97.747536,28.102173 82.968666,43.158123 68.133759,58.156879 
	C63.015274,63.331894 57.395184,68.014511 52.331169,73.238953 
	C37.513947,88.525589 22.899063,104.008301 8.095194,119.308037 
	C6.304679,121.158524 3.842016,122.358643 1.345438,123.930092 
	C1.000000,116.645744 1.000000,109.291496 1.000000,101.468620 
	C5.604515,96.762337 10.305564,92.623985 14.791250,88.264069 
	C21.780607,81.470665 28.663872,74.566444 35.512875,67.630959 
	C39.244499,63.852215 42.791412,59.891788 46.458843,56.048805 
	C58.494675,43.436863 70.490486,30.785870 82.624153,18.268612 
	C86.995399,13.759166 91.766006,9.638887 96.228607,5.214184 
	C97.099998,4.350192 97.390671,2.900517 97.974594,1.360491 
	C105.687576,1.000000 113.375153,1.000000 121.531364,0.999999 
z"/>
<path fill="#26F39B" opacity="1.000000" stroke="none" 
	d="
M0.999998,147.467606 
	C5.439462,143.329269 10.121235,139.911179 14.267424,135.934677 
	C22.629034,127.915237 30.768557,119.659714 38.867077,111.371986 
	C44.902443,105.195602 50.636997,98.725288 56.672058,92.548599 
	C64.541237,84.494766 72.646408,76.671593 80.519920,68.621918 
	C90.372078,58.549332 100.031082,48.287758 109.888626,38.220528 
	C117.651543,30.292482 125.726082,22.666359 133.390869,14.646798 
	C137.223541,10.636733 140.449570,6.046866 143.974991,1.359622 
	C149.354935,1.000000 154.709854,1.000000 160.507263,1.360413 
	C160.030502,3.248334 159.364120,5.021758 158.153809,6.266143 
	C142.257294,22.610186 126.308296,38.903450 110.324081,55.161884 
	C88.144608,77.721870 65.897491,100.215408 43.732895,122.789970 
	C33.024982,133.695953 22.542629,144.825302 11.734358,155.629654 
	C8.549592,158.813263 4.599405,161.231171 0.999997,164.000000 
	C1.000000,158.645065 1.000000,153.290146 0.999998,147.467606 
z"/>
<path fill="#20C1DB" opacity="1.000000" stroke="none" 
	d="
M301.000000,163.000000 
	C301.000000,168.688034 301.000000,174.376083 300.640564,180.557037 
	C298.638123,182.082870 296.724854,182.850174 295.401215,184.196945 
	C290.867645,188.809799 286.677704,193.763153 282.099121,198.328293 
	C276.931488,203.480804 271.332031,208.202011 266.195160,213.383224 
	C257.918518,221.731293 249.905746,230.340210 241.711777,238.771164 
	C227.959625,252.921021 214.158234,267.023071 200.364136,281.132050 
	C197.596756,283.962616 194.598373,286.586395 192.013351,289.571259 
	C188.840454,293.234955 185.989899,297.177826 183.000000,301.000000 
	C177.311966,301.000000 171.623917,301.000000 165.545258,300.665070 
	C171.113754,293.709442 176.864227,286.885345 183.076828,280.511749 
	C194.871964,268.410828 206.994003,256.629272 218.860565,244.597031 
	C227.353119,235.985947 235.647476,227.179459 244.036057,218.465744 
	C251.614670,210.593399 259.149689,202.678162 266.799377,194.875397 
	C273.741028,187.794785 280.681702,180.703537 287.874969,173.882965 
	C291.990021,169.981140 296.608307,166.610062 301.000000,163.000000 
z"/>
<path fill="#1FBEE0" opacity="1.000000" stroke="none" 
	d="
M183.468536,301.000000 
	C185.989899,297.177826 188.840454,293.234955 192.013351,289.571259 
	C194.598373,286.586395 197.596756,283.962616 200.364136,281.132050 
	C214.158234,267.023071 227.959625,252.921021 241.711777,238.771164 
	C249.905746,230.340210 257.918518,221.731293 266.195160,213.383224 
	C271.332031,208.202011 276.931488,203.480804 282.099121,198.328293 
	C286.677704,193.763153 290.867645,188.809799 295.401215,184.196945 
	C296.724854,182.850174 298.638123,182.082870 300.640564,181.024979 
	C301.000000,187.687637 301.000000,194.375290 301.000000,201.531464 
	C297.127777,205.056442 292.936218,207.789627 289.448120,211.234970 
	C281.583801,219.002914 274.059784,227.115799 266.412048,235.102448 
	C259.774170,242.034500 253.215195,249.043137 246.513611,255.912857 
	C239.713776,262.883301 232.658081,269.606903 225.941284,276.654816 
	C218.544769,284.416016 211.406631,292.423462 204.077972,300.661804 
	C197.312363,301.000000 190.624710,301.000000 183.468536,301.000000 
z"/>
<path fill="#21C8D3" opacity="1.000000" stroke="none" 
	d="
M124.463181,301.000000 
	C124.998787,299.168213 125.673279,297.031830 127.055496,295.560181 
	C131.702805,290.612366 136.643799,285.942078 141.397308,281.091980 
	C155.781067,266.415955 170.153992,251.729126 184.482040,236.998764 
	C192.337479,228.922760 199.980881,220.637878 207.929733,212.656174 
	C214.703461,205.854416 221.968414,199.538284 228.675262,192.674316 
	C239.795456,181.293610 250.587219,169.592758 261.625000,158.130478 
	C267.945740,151.566681 274.487793,145.216339 280.913452,138.753235 
	C284.996643,134.646271 288.941559,130.394226 293.160156,126.432686 
	C295.306732,124.416878 297.920837,122.898941 300.661804,121.077965 
	C301.000000,125.024544 301.000000,129.049088 300.654572,133.606720 
	C298.871887,134.939209 297.178314,135.475006 296.039948,136.581848 
	C289.743652,142.703644 283.522522,148.905930 277.391266,155.193375 
	C270.457336,162.303925 263.732208,169.619019 256.760773,176.691864 
	C246.056778,187.551514 235.155609,198.216888 224.457230,209.081970 
	C213.192520,220.522247 202.097122,232.129013 190.874924,243.611404 
	C174.203308,260.669586 157.450882,277.649017 140.840118,294.766083 
	C139.180786,296.475983 138.262299,298.904816 137.000000,301.000000 
	C132.975464,301.000000 128.950912,301.000000 124.463181,301.000000 
z"/>
<path fill="#22D7BF" opacity="1.000000" stroke="none" 
	d="
M53.000000,301.000000 
	C51.933212,301.000000 50.866425,301.000000 49.739540,300.723480 
	C44.448769,297.907013 39.218094,295.367065 33.824776,292.672974 
	C33.431107,292.326263 33.180092,292.164795 32.941093,292.024719 
	C32.973099,292.015015 32.952305,292.078583 32.963539,291.678528 
	C33.915054,289.088165 34.334084,286.399414 35.877312,284.785767 
	C49.374031,270.673340 63.112457,256.792358 76.660439,242.728363 
	C78.449310,240.871353 79.570648,238.371323 81.330421,236.006592 
	C84.398453,234.224335 86.960770,232.095917 89.906906,231.074051 
	C101.874718,226.922928 113.960335,223.111389 125.974594,219.532043 
	C125.085503,221.646561 124.578514,223.730316 123.306999,225.108948 
	C113.311134,235.946854 103.312607,246.789490 93.034355,257.357849 
	C81.140167,269.587738 68.884445,281.465973 56.983143,293.689148 
	C55.118961,295.603729 54.301472,298.537506 53.000000,301.000000 
z"/>
<path fill="#25EDA3" opacity="1.000000" stroke="none" 
	d="
M190.000000,1.000001 
	C193.362106,1.000000 196.724197,1.000000 200.518127,1.359620 
	C200.032928,3.245953 199.361816,5.008220 198.160370,6.262483 
	C187.604340,17.282637 177.013687,28.271330 166.300034,39.137951 
	C162.340973,43.153534 157.822861,46.622440 153.912018,50.680206 
	C141.714508,63.335945 129.782837,76.248482 117.547592,88.867020 
	C111.912216,94.678940 105.689919,99.918312 99.967369,105.650520 
	C96.780289,108.842979 97.526520,110.617348 101.927246,112.370453 
	C100.510658,112.836510 99.276581,112.974701 97.782021,112.909012 
	C95.499687,113.490021 93.034103,113.787109 91.536987,115.148911 
	C86.521217,119.711266 81.777733,124.582809 77.063065,129.464493 
	C63.723114,143.277023 50.452900,157.156891 37.147991,171.003281 
	C28.419401,180.087097 19.813774,189.295776 10.862841,198.155304 
	C8.061434,200.928085 4.314258,202.745361 0.999999,205.000000 
	C1.000000,201.637894 1.000000,198.275803 1.345441,194.386963 
	C3.722589,192.477997 6.045486,191.383270 7.739377,189.667526 
	C19.957684,177.291748 32.016579,164.758835 44.187481,152.335938 
	C62.181255,133.969635 80.181671,115.609428 98.261856,97.328316 
	C115.059715,80.343788 132.075409,63.573639 148.789017,46.507198 
	C161.808655,33.212715 174.545120,19.639664 187.303406,6.092432 
	C188.573120,4.744202 189.118469,2.713793 190.000000,1.000001 
z"/>
<path fill="#22D3C5" opacity="1.000000" stroke="none" 
	d="
M53.468575,301.000000 
	C54.301472,298.537506 55.118961,295.603729 56.983143,293.689148 
	C68.884445,281.465973 81.140167,269.587738 93.034355,257.357849 
	C103.312607,246.789490 113.311134,235.946854 123.306999,225.108948 
	C124.578514,223.730316 125.085503,221.646561 126.370117,219.458344 
	C135.862381,216.741180 144.931213,214.455139 154.074982,212.507080 
	C153.713257,214.780075 153.898041,217.285690 152.734299,218.553177 
	C147.141876,224.644226 141.155182,230.371414 135.364182,236.282364 
	C123.421623,248.472351 111.529572,260.711792 99.586235,272.901001 
	C93.794891,278.811584 87.750153,284.486633 82.183220,290.598999 
	C79.371628,293.686035 77.368614,297.509521 75.000008,301.000000 
	C67.979050,301.000000 60.958103,301.000000 53.468575,301.000000 
z"/>
<path fill="#22D3C5" opacity="1.000000" stroke="none" 
	d="
M301.000000,50.000000 
	C301.000000,56.687645 301.000000,63.375290 300.640564,70.556427 
	C298.638580,72.082375 296.712067,72.842064 295.408112,74.199715 
	C291.851288,77.903000 288.736572,82.036438 285.124359,85.679848 
	C275.680847,95.204857 266.033936,104.527786 256.528778,113.992241 
	C249.508942,120.982063 242.560699,128.044388 235.622986,135.116043 
	C224.632065,146.319122 213.739380,157.620010 202.624039,168.697800 
	C201.287003,170.030319 198.824783,170.233826 196.934570,170.559555 
	C199.387009,159.592712 203.764542,149.897751 210.178162,140.826355 
	C214.463943,136.840332 218.427765,132.986328 222.817078,129.111847 
	C225.576309,129.155334 227.919922,129.385544 230.241776,129.248154 
	C234.884796,128.973434 236.086182,124.611687 238.630325,121.859375 
	C244.581940,115.420746 244.598602,113.678459 239.250793,107.008942 
	C241.372803,105.829895 243.392319,104.944351 244.834244,103.487228 
	C251.080414,97.175217 257.145905,90.684769 263.299561,84.280777 
	C271.872070,75.359489 280.312958,66.303207 289.131104,57.631035 
	C292.208740,54.604328 296.238159,52.545391 300.135559,50.318871 
	C300.625458,50.395493 300.812714,50.197746 301.000000,50.000000 
z"/>
<path fill="#25EEA2" opacity="1.000000" stroke="none" 
	d="
M189.550018,1.000001 
	C189.118469,2.713793 188.573120,4.744202 187.303406,6.092432 
	C174.545120,19.639664 161.808655,33.212715 148.789017,46.507198 
	C132.075409,63.573639 115.059715,80.343788 98.261856,97.328316 
	C80.181671,115.609428 62.181255,133.969635 44.187481,152.335938 
	C32.016579,164.758835 19.957684,177.291748 7.739377,189.667526 
	C6.045486,191.383270 3.722589,192.477997 1.345441,193.930115 
	C1.000000,190.969406 1.000000,187.938812 1.359627,184.429092 
	C3.129411,183.148453 4.779769,182.595016 5.908126,181.502472 
	C10.775459,176.789581 15.513631,171.942032 20.254385,167.099991 
	C27.682100,159.513580 35.049908,151.868454 42.486687,144.290985 
	C53.269897,133.303757 64.095871,122.358498 74.896080,111.387939 
	C81.994835,104.177208 89.083092,96.956131 96.171165,89.734894 
	C107.069580,78.631721 117.974709,67.535110 128.856064,56.415249 
	C136.512604,48.590889 144.073578,40.672073 151.790588,32.908100 
	C158.200424,26.459234 164.974335,20.361752 171.202011,13.746218 
	C174.856964,9.863638 177.759186,5.272448 181.000000,0.999998 
	C183.700012,1.000000 186.400024,1.000000 189.550018,1.000001 
z"/>
<path fill="#20C4D8" opacity="1.000000" stroke="none" 
	d="
M301.000000,162.536835 
	C296.608307,166.610062 291.990021,169.981140 287.874969,173.882965 
	C280.681702,180.703537 273.741028,187.794785 266.799377,194.875397 
	C259.149689,202.678162 251.614670,210.593399 244.036057,218.465744 
	C235.647476,227.179459 227.353119,235.985947 218.860565,244.597031 
	C206.994003,256.629272 194.871964,268.410828 183.076828,280.511749 
	C176.864227,286.885345 171.113754,293.709442 165.077316,300.665070 
	C160.975449,301.000000 156.950912,301.000000 152.533081,300.654541 
	C153.405777,298.393860 154.374405,296.164459 155.998383,294.627472 
	C159.605103,291.214081 163.827744,288.427551 167.280563,284.880524 
	C174.089447,277.885895 180.478638,270.484680 187.182892,263.385223 
	C189.680634,260.740265 192.759048,258.642914 195.250397,255.992859 
	C201.279785,249.579361 207.001968,242.874878 213.092636,236.522263 
	C215.593170,233.914185 219.004639,232.180893 221.512894,229.578491 
	C228.173187,222.668259 234.522568,215.459518 241.088867,208.456940 
	C243.798340,205.567459 246.829880,202.981522 249.568420,200.117432 
	C255.542084,193.869888 261.332153,187.445190 267.363220,181.254593 
	C274.518188,173.910355 281.723999,166.606064 289.154022,159.543488 
	C292.816956,156.061722 297.033813,153.162704 301.000000,150.000000 
	C301.000000,154.024551 301.000000,158.049088 301.000000,162.536835 
z"/>
<path fill="#24E8AA" opacity="1.000000" stroke="none" 
	d="
M216.000000,0.999999 
	C220.689255,1.000000 225.378510,1.000000 230.508911,1.359412 
	C229.682510,3.596701 228.673691,5.730861 227.107040,7.312474 
	C212.787323,21.768976 198.324280,36.083523 184.003799,50.539284 
	C177.816055,56.785465 171.949707,63.349358 165.785904,69.620064 
	C155.922485,79.654549 145.926071,89.558220 136.002670,99.533890 
	C134.129272,101.417145 133.319077,103.401588 135.518524,105.672089 
	C127.453735,107.553093 119.726761,109.192574 112.085510,110.509644 
	C113.182190,108.889648 114.083237,107.484863 115.224678,106.314522 
	C118.685020,102.766579 122.327400,99.393883 125.738945,95.801064 
	C136.127197,84.860771 146.306488,73.718864 156.828430,62.909809 
	C164.216431,55.320217 172.135544,48.250393 179.628021,40.758999 
	C187.963394,32.424835 196.216049,23.998728 204.243866,15.369970 
	C208.450806,10.848140 212.099304,5.806754 216.000000,0.999999 
z"/>
<path fill="#25EBA6" opacity="1.000000" stroke="none" 
	d="
M215.533875,0.999999 
	C212.099304,5.806754 208.450806,10.848140 204.243866,15.369970 
	C196.216049,23.998728 187.963394,32.424835 179.628021,40.758999 
	C172.135544,48.250393 164.216431,55.320217 156.828430,62.909809 
	C146.306488,73.718864 136.127197,84.860771 125.738945,95.801064 
	C122.327400,99.393883 118.685020,102.766579 115.224678,106.314522 
	C114.083237,107.484863 113.182190,108.889648 111.677689,110.593842 
	C108.159348,111.347824 105.134552,111.695213 102.109756,112.042603 
	C97.526520,110.617348 96.780289,108.842979 99.967369,105.650520 
	C105.689919,99.918312 111.912216,94.678940 117.547592,88.867020 
	C129.782837,76.248482 141.714508,63.335945 153.912018,50.680206 
	C157.822861,46.622440 162.340973,43.153534 166.300034,39.137951 
	C177.013687,28.271330 187.604340,17.282637 198.160370,6.262483 
	C199.361816,5.008220 200.032928,3.245953 200.974976,1.359620 
	C205.689255,1.000000 210.378510,1.000000 215.533875,0.999999 
z"/>
<path fill="#24E6AC" opacity="1.000000" stroke="none" 
	d="
M135.856354,105.430557 
	C133.319077,103.401588 134.129272,101.417145 136.002670,99.533890 
	C145.926071,89.558220 155.922485,79.654549 165.785904,69.620064 
	C171.949707,63.349358 177.816055,56.785465 184.003799,50.539284 
	C198.324280,36.083523 212.787323,21.768976 227.107040,7.312474 
	C228.673691,5.730861 229.682510,3.596701 230.975037,1.359412 
	C235.689255,1.000000 240.378510,1.000000 245.357742,1.281667 
	C228.481033,19.159683 211.298218,36.740372 194.174469,54.378403 
	C192.591049,56.009399 191.383240,58.005047 189.613129,59.903023 
	C183.351852,59.777115 180.874100,65.078171 176.865234,67.823547 
	C172.250778,70.983650 171.818741,76.022995 174.956253,80.705208 
	C175.937851,82.170059 177.057251,83.542557 177.739532,84.988510 
	C173.540588,87.695702 169.715683,90.371727 165.587006,92.926071 
	C163.425110,93.437050 161.507614,93.935356 159.719055,94.725479 
	C151.744690,98.248283 143.807175,101.854485 135.856354,105.430557 
z"/>
<path fill="#21D0C9" opacity="1.000000" stroke="none" 
	d="
M75.466125,301.000000 
	C77.368614,297.509521 79.371628,293.686035 82.183220,290.598999 
	C87.750153,284.486633 93.794891,278.811584 99.586235,272.901001 
	C111.529572,260.711792 123.421623,248.472351 135.364182,236.282364 
	C141.155182,230.371414 147.141876,224.644226 152.734299,218.553177 
	C153.898041,217.285690 153.713257,214.780075 154.487579,212.435623 
	C160.871323,210.977905 166.917435,209.929611 172.963531,208.881317 
	C174.990768,211.408875 174.574646,213.214233 172.181351,215.648590 
	C155.298752,232.821014 138.697922,250.270157 121.856567,267.483612 
	C115.022003,274.469208 107.682816,280.960175 100.822136,287.921478 
	C97.001778,291.797821 93.693130,296.178528 90.076935,300.665955 
	C85.310745,301.000000 80.621490,301.000000 75.466125,301.000000 
z"/>
<path fill="#25F09F" opacity="1.000000" stroke="none" 
	d="
M180.555832,0.999998 
	C177.759186,5.272448 174.856964,9.863638 171.202011,13.746218 
	C164.974335,20.361752 158.200424,26.459234 151.790588,32.908100 
	C144.073578,40.672073 136.512604,48.590889 128.856064,56.415249 
	C117.974709,67.535110 107.069580,78.631721 96.171165,89.734894 
	C89.083092,96.956131 81.994835,104.177208 74.896080,111.387939 
	C64.095871,122.358498 53.269897,133.303757 42.486687,144.290985 
	C35.049908,151.868454 27.682100,159.513580 20.254385,167.099991 
	C15.513631,171.942032 10.775459,176.789581 5.908126,181.502472 
	C4.779769,182.595016 3.129411,183.148453 1.359627,183.974976 
	C1.000000,182.285645 1.000000,180.571289 1.334408,178.350891 
	C2.504049,177.321808 3.484908,176.940460 4.152560,176.254349 
	C13.396502,166.754883 22.581879,157.198471 31.812796,147.686279 
	C43.691788,135.445328 55.580051,123.213226 67.501266,111.013412 
	C74.100716,104.259735 80.811150,97.614456 87.406143,90.856476 
	C93.653282,84.454933 99.772385,77.928352 106.026352,71.533585 
	C112.164780,65.256958 118.529030,59.196362 124.539787,52.801830 
	C127.336815,49.826218 129.531998,46.284893 132.250000,42.999969 
	C132.500000,42.999931 133.000000,42.999847 133.333832,42.922985 
	C135.560654,41.272011 137.580948,39.826630 139.324905,38.101849 
	C147.537003,29.980087 155.849869,21.947634 163.756226,13.535059 
	C167.286530,9.778724 169.945557,5.203552 173.000000,0.999999 
	C175.370560,1.000000 177.741104,1.000000 180.555832,0.999998 
z"/>
<path fill="#25F19D" opacity="1.000000" stroke="none" 
	d="
M133.000000,42.999847 
	C133.000000,42.999847 132.500000,42.999931 131.916153,43.076855 
	C124.060944,49.846340 116.765762,56.513317 109.531113,63.245331 
	C106.992432,65.607635 104.584946,68.112450 102.147797,70.582031 
	C95.392281,77.427429 88.599861,84.237541 81.920853,91.156982 
	C74.440094,98.907005 67.055763,106.750366 59.662415,114.584198 
	C58.675983,115.629402 57.882717,116.856911 56.713669,118.094666 
	C55.951565,118.792892 55.475784,119.396446 54.882454,120.311646 
	C49.468651,125.822350 44.081333,130.932495 38.897110,136.240967 
	C30.758696,144.574448 22.868923,153.152878 14.650375,161.405029 
	C10.584443,165.487579 7.916286,171.536377 1.000000,172.000000 
	C1.000000,169.629440 1.000000,167.258896 0.999997,164.444168 
	C4.599405,161.231171 8.549592,158.813263 11.734358,155.629654 
	C22.542629,144.825302 33.024982,133.695953 43.732895,122.789970 
	C65.897491,100.215408 88.144608,77.721870 110.324081,55.161884 
	C126.308296,38.903450 142.257294,22.610186 158.153809,6.266143 
	C159.364120,5.021758 160.030502,3.248334 160.974854,1.360413 
	C163.370560,1.000000 165.741104,1.000000 168.424759,1.289595 
	C168.491898,2.386127 168.245941,3.193063 167.888336,4.320968 
	C164.454880,8.180812 161.207718,11.793704 157.791046,15.238473 
	C154.120163,18.939568 150.575180,22.854843 146.461853,26.006628 
	C140.475937,30.593277 134.853500,35.238930 133.000000,42.999847 
z"/>
<path fill="#21D0C9" opacity="1.000000" stroke="none" 
	d="
M196.884064,170.960602 
	C198.824783,170.233826 201.287003,170.030319 202.624039,168.697800 
	C213.739380,157.620010 224.632065,146.319122 235.622986,135.116043 
	C242.560699,128.044388 249.508942,120.982063 256.528778,113.992241 
	C266.033936,104.527786 275.680847,95.204857 285.124359,85.679848 
	C288.736572,82.036438 291.851288,77.903000 295.408112,74.199715 
	C296.712067,72.842064 298.638580,72.082375 300.640564,71.024963 
	C301.000000,74.692909 301.000000,78.385818 300.664368,82.617020 
	C293.607788,89.217957 286.643860,95.035416 280.221710,101.399590 
	C270.095825,111.434052 260.244904,121.751961 250.469696,132.130798 
	C247.334290,135.459839 244.806046,139.360733 241.639175,143.025253 
	C236.607162,147.114609 231.682205,150.925110 227.316086,155.294067 
	C217.346924,165.269745 207.664444,175.531525 197.832809,185.645309 
	C196.023209,187.506866 194.059540,189.218658 192.096100,190.590256 
	C193.644836,183.774139 195.264450,177.367371 196.884064,170.960602 
z"/>
<path fill="#24E5AE" opacity="1.000000" stroke="none" 
	d="
M1.000001,251.000000 
	C1.000000,248.629440 1.000000,246.258896 1.359884,243.417480 
	C2.810251,242.284637 4.117495,241.824783 4.954902,240.926788 
	C9.341575,236.222733 13.401778,231.198883 17.958479,226.671722 
	C29.936127,214.771774 42.221249,203.180847 54.173382,191.255844 
	C63.416939,182.033295 72.311569,172.461823 81.438072,163.120453 
	C83.039856,161.480957 84.703117,158.670044 87.325760,162.100861 
	C85.737907,168.237381 84.284325,174.118347 82.461639,180.007355 
	C77.894020,183.270874 73.410454,186.224457 69.565720,189.854645 
	C64.186272,194.933914 59.309811,200.543350 54.166676,205.876312 
	C50.725685,209.444351 47.209465,212.940353 43.701748,216.443405 
	C37.534420,222.602539 31.207888,228.609406 25.206038,234.925232 
	C18.310219,242.181793 11.694709,249.704712 4.621587,256.919495 
	C3.190491,254.818039 2.095247,252.909012 1.000001,251.000000 
z"/>
<path fill="#24E7AB" opacity="1.000000" stroke="none" 
	d="
M87.460030,161.845306 
	C84.703117,158.670044 83.039856,161.480957 81.438072,163.120453 
	C72.311569,172.461823 63.416939,182.033295 54.173382,191.255844 
	C42.221249,203.180847 29.936127,214.771774 17.958479,226.671722 
	C13.401778,231.198883 9.341575,236.222733 4.954902,240.926788 
	C4.117495,241.824783 2.810251,242.284637 1.359884,242.973328 
	C1.000000,238.310745 1.000000,233.621490 1.345438,228.396210 
	C3.724939,226.475647 6.035833,225.366699 7.740672,223.654358 
	C12.666367,218.707016 17.238247,213.408157 22.147442,208.443497 
	C33.817177,196.641891 45.603970,184.956070 57.338249,173.218231 
	C67.444771,163.108658 77.505615,152.952698 87.703819,142.936539 
	C88.768883,141.890488 90.628029,141.652939 92.067879,141.463516 
	C90.498016,148.539612 88.979027,155.192459 87.460030,161.845306 
z"/>
<path fill="#20C7D5" opacity="1.000000" stroke="none" 
	d="
M137.416656,301.000000 
	C138.262299,298.904816 139.180786,296.475983 140.840118,294.766083 
	C157.450882,277.649017 174.203308,260.669586 190.874924,243.611404 
	C202.097122,232.129013 213.192520,220.522247 224.457230,209.081970 
	C235.155609,198.216888 246.056778,187.551514 256.760773,176.691864 
	C263.732208,169.619019 270.457336,162.303925 277.391266,155.193375 
	C283.522522,148.905930 289.743652,142.703644 296.039948,136.581848 
	C297.178314,135.475006 298.871887,134.939209 300.654572,134.069885 
	C301.000000,135.714355 301.000000,137.428711 300.653259,139.609116 
	C299.537689,141.050110 298.768829,142.025055 297.741333,143.153442 
	C296.655151,143.871262 295.827576,144.435638 294.637024,145.028137 
	C293.182678,146.370834 292.091339,147.685410 290.823853,149.282379 
	C284.765137,155.709854 278.882568,161.854935 272.653259,168.037567 
	C271.537659,169.050095 270.768829,170.025040 269.846558,171.258636 
	C269.128723,172.344864 268.564362,173.172424 267.670959,174.075562 
	C266.227966,175.434097 265.113983,176.717056 263.666687,178.000000 
	C262.888885,178.000000 262.444458,178.000000 261.713654,178.094681 
	C260.951538,178.792908 260.475769,179.396454 259.690247,180.118286 
	C258.253693,182.157715 257.126831,184.078857 255.682358,186.109406 
	C250.833099,190.382736 246.275558,194.519241 241.805099,198.747849 
	C241.288666,199.236328 241.256607,200.236862 240.651917,201.033325 
	C239.202560,202.377777 238.101273,203.688889 236.772415,205.229767 
	C235.029892,206.973022 233.514938,208.486511 231.670959,210.075562 
	C230.227951,211.434082 229.113983,212.717041 227.716370,214.177032 
	C224.621826,217.236053 221.810913,220.118027 218.650101,223.033539 
	C217.572311,223.418060 216.679459,223.604462 216.140869,224.144318 
	C205.155838,235.154739 194.192139,246.186722 183.290939,257.279999 
	C182.295868,258.292572 181.752914,259.749451 180.738022,261.181885 
	C179.650696,262.575836 178.825348,263.787933 177.668396,265.076233 
	C175.891205,266.768311 174.445602,268.384155 172.716156,270.177429 
	C169.954880,272.903229 167.477432,275.451630 164.650116,278.033539 
	C158.680405,283.397797 152.979477,288.646820 147.482422,294.101257 
	C145.411850,296.155823 143.813583,298.686401 142.000000,301.000000 
	C140.611115,301.000000 139.222214,301.000000 137.416656,301.000000 
z"/>
<path fill="#20C6D6" opacity="1.000000" stroke="none" 
	d="
M219.000000,223.000000 
	C221.810913,220.118027 224.621826,217.236053 228.045410,214.101471 
	C229.772064,212.565933 230.886032,211.282974 232.000000,210.000000 
	C233.514938,208.486511 235.029892,206.973022 237.101471,205.154221 
	C238.772064,203.565933 239.886032,202.282959 241.000000,201.000000 
	C241.256607,200.236862 241.288666,199.236328 241.805099,198.747849 
	C246.275558,194.519241 250.833099,190.382736 256.027649,186.025375 
	C257.793732,183.887955 258.896851,181.943985 260.286316,179.905334 
	C261.048462,179.207123 261.524231,178.603561 262.000000,178.000000 
	C262.444458,178.000000 262.888885,178.000000 263.995728,177.924438 
	C265.772034,176.565918 266.886017,175.282959 268.000000,174.000000 
	C268.564362,173.172424 269.128723,172.344864 270.166992,171.182434 
	C271.427246,169.898392 272.213623,168.949188 273.000000,168.000000 
	C278.882568,161.854935 284.765137,155.709854 291.152893,149.206848 
	C292.772095,147.565933 293.886047,146.282974 295.000000,145.000015 
	C295.827576,144.435638 296.655151,143.871262 298.116333,143.153442 
	C299.500000,143.000000 300.250000,143.000000 301.000000,143.000000 
	C301.000000,145.041672 301.000000,147.083328 301.000000,149.562500 
	C297.033813,153.162704 292.816956,156.061722 289.154022,159.543488 
	C281.723999,166.606064 274.518188,173.910355 267.363220,181.254593 
	C261.332153,187.445190 255.542084,193.869888 249.568420,200.117432 
	C246.829880,202.981522 243.798340,205.567459 241.088867,208.456940 
	C234.522568,215.459518 228.173187,222.668259 221.512894,229.578491 
	C219.004639,232.180893 215.593170,233.914185 213.092636,236.522263 
	C207.001968,242.874878 201.279785,249.579361 195.250397,255.992859 
	C192.759048,258.642914 189.680634,260.740265 187.182892,263.385223 
	C180.478638,270.484680 174.089447,277.885895 167.280563,284.880524 
	C163.827744,288.427551 159.605103,291.214081 155.998383,294.627472 
	C154.374405,296.164459 153.405777,298.393860 152.069901,300.654541 
	C150.285645,301.000000 148.571289,301.000000 146.455200,300.639709 
	C149.946014,295.910828 153.900665,291.595520 157.709244,287.154907 
	C160.247284,284.195709 162.577042,281.057892 165.000000,278.000000 
	C167.477432,275.451630 169.954880,272.903229 173.047745,270.101196 
	C175.108780,268.231720 176.554398,266.615845 178.000000,265.000000 
	C178.825348,263.787933 179.650696,262.575836 181.085312,261.111328 
	C183.114395,260.041351 184.782593,259.476990 185.914749,258.366272 
	C195.004257,249.448639 204.078903,240.511810 212.954483,231.382889 
	C215.330307,228.939240 217.003983,225.812912 219.000000,223.000000 
z"/>
<path fill="#25EBA6" opacity="1.000000" stroke="none" 
	d="
M0.999999,205.460632 
	C4.314258,202.745361 8.061434,200.928085 10.862841,198.155304 
	C19.813774,189.295776 28.419401,180.087097 37.147991,171.003281 
	C50.452900,157.156891 63.723114,143.277023 77.063065,129.464493 
	C81.777733,124.582809 86.521217,119.711266 91.536987,115.148911 
	C93.034103,113.787109 95.499687,113.490021 97.762314,113.320969 
	C97.332832,116.741234 96.674248,119.548485 95.988960,122.349205 
	C95.354980,124.940216 94.692413,127.524231 93.853821,129.833511 
	C90.834770,126.609756 89.183647,129.334900 87.558098,130.991333 
	C61.800400,157.238312 36.123104,183.564316 10.312811,209.759338 
	C7.576993,212.535934 4.121575,214.603500 1.000001,217.000000 
	C1.000000,213.307098 1.000000,209.614182 0.999999,205.460632 
z"/>
<path fill="#24E9A8" opacity="1.000000" stroke="none" 
	d="
M1.000001,217.458069 
	C4.121575,214.603500 7.576993,212.535934 10.312811,209.759338 
	C36.123104,183.564316 61.800400,157.238312 87.558098,130.991333 
	C89.183647,129.334900 90.834770,126.609756 93.835228,130.256165 
	C93.376411,134.317856 92.747581,137.679062 92.118744,141.040283 
	C90.628029,141.652939 88.768883,141.890488 87.703819,142.936539 
	C77.505615,152.952698 67.444771,163.108658 57.338249,173.218231 
	C45.603970,184.956070 33.817177,196.641891 22.147442,208.443497 
	C17.238247,213.408157 12.666367,218.707016 7.740672,223.654358 
	C6.035833,225.366699 3.724939,226.475647 1.345438,227.930099 
	C1.000000,224.638718 1.000000,221.277420 1.000001,217.458069 
z"/>
<path fill="#24E4AF" opacity="1.000000" stroke="none" 
	d="
M190.001007,59.831367 
	C191.383240,58.005047 192.591049,56.009399 194.174469,54.378403 
	C211.298218,36.740372 228.481033,19.159683 245.823853,1.281667 
	C247.388885,1.000000 248.777786,1.000000 250.244171,1.275449 
	C253.581955,3.350429 256.842255,5.149960 259.791504,7.101184 
	C251.421524,14.588552 243.094666,21.654348 235.367599,29.324394 
	C224.316147,40.294273 213.739075,51.740929 202.857224,62.884209 
	C201.521652,64.251869 199.557693,65.005913 197.579987,65.913254 
	C194.850357,63.798584 192.425674,61.814976 190.001007,59.831367 
z"/>
<path fill="#000000" opacity="1.000000" stroke="none" 
	d="
M51.531342,0.999999 
	C51.392738,1.675724 50.915359,2.639287 50.157501,2.981251 
	C44.527344,5.521706 38.279770,7.134844 33.318027,10.601888 
	C27.370577,14.757704 22.379898,20.338018 17.221697,25.545906 
	C14.440433,28.353966 11.671080,31.397272 9.796376,34.826477 
	C7.106578,39.746655 5.255338,45.123436 3.003610,50.286755 
	C2.634515,51.133102 2.047298,51.884323 1.280447,52.339756 
	C1.000000,35.073246 1.000000,18.146490 1.000000,1.000000 
	C17.686918,1.000000 34.374802,1.000000 51.531342,0.999999 
z"/>
<path fill="#000000" opacity="1.000000" stroke="none" 
	d="
M260.102539,6.949491 
	C256.842255,5.149960 253.581955,3.350429 250.660828,1.275449 
	C267.592682,1.000000 284.185333,1.000000 301.000000,1.000000 
	C301.000000,17.020210 301.000000,33.041447 301.000000,49.531342 
	C300.812714,50.197746 300.625458,50.395493 300.102966,49.950844 
	C297.547302,44.523781 295.326813,39.739109 293.054321,34.597523 
	C290.373352,31.146004 287.744415,28.051397 284.977783,24.648245 
	C281.908173,21.857712 278.976288,19.375725 275.908203,16.578712 
	C273.215698,14.159402 270.659302,12.055117 267.944519,9.639209 
	C265.224884,8.534887 262.663727,7.742189 260.102539,6.949491 
z"/>
<path fill="#000000" opacity="1.000000" stroke="none" 
	d="
M1.000001,251.468658 
	C2.095247,252.909012 3.190491,254.818039 4.645823,257.261414 
	C5.992760,260.231750 6.979609,262.667725 8.097911,265.421204 
	C9.541758,267.820374 10.854150,269.902100 12.123297,272.239685 
	C12.355081,272.682770 12.630111,272.869965 13.034929,273.359314 
	C14.170030,274.426971 15.175341,275.192444 16.199219,276.293732 
	C21.795958,281.779205 27.374130,286.928894 32.952305,292.078583 
	C32.952305,292.078583 32.973099,292.015015 33.031052,292.268066 
	C33.388474,292.623138 33.687939,292.725159 33.987411,292.827148 
	C39.218094,295.367065 44.448769,297.907013 49.339722,300.723480 
	C33.071766,301.000000 17.143530,301.000000 1.000000,301.000000 
	C1.000000,284.646393 1.000000,268.291870 1.000001,251.468658 
z"/>
<path fill="#000000" opacity="1.000000" stroke="none" 
	d="
M254.468658,301.000000 
	C255.503525,299.946167 256.865662,298.415070 258.534882,297.920593 
	C266.011414,295.705872 272.272583,291.540466 277.445343,285.931396 
	C283.719482,279.128082 289.849945,272.143311 295.436127,264.777100 
	C297.887543,261.544556 298.838470,257.174103 300.735352,253.660172 
	C301.000000,269.593384 301.000000,285.186798 301.000000,301.000000 
	C285.646484,301.000000 270.291901,301.000000 254.468658,301.000000 
z"/>
<path fill="#25F19E" opacity="1.000000" stroke="none" 
	d="
M56.999996,118.000000 
	C57.882717,116.856911 58.675983,115.629402 59.662415,114.584198 
	C67.055763,106.750366 74.440094,98.907005 81.920853,91.156982 
	C88.599861,84.237541 95.392281,77.427429 102.147797,70.582031 
	C104.584946,68.112450 106.992432,65.607635 109.531113,63.245331 
	C116.765762,56.513317 124.060944,49.846340 131.666153,43.076889 
	C129.531998,46.284893 127.336815,49.826218 124.539787,52.801830 
	C118.529030,59.196362 112.164780,65.256958 106.026352,71.533585 
	C99.772385,77.928352 93.653282,84.454933 87.406143,90.856476 
	C80.811150,97.614456 74.100716,104.259735 67.501266,111.013412 
	C55.580051,123.213226 43.691788,135.445328 31.812796,147.686279 
	C22.581879,157.198471 13.396502,166.754883 4.152560,176.254349 
	C3.484908,176.940460 2.504049,177.321808 1.334408,177.922424 
	C1.000000,176.285645 1.000000,174.571289 1.000000,172.428467 
	C7.916286,171.536377 10.584443,165.487579 14.650375,161.405029 
	C22.868923,153.152878 30.758696,144.574448 38.897110,136.240967 
	C44.081333,130.932495 49.468651,125.822350 55.168777,120.216972 
	C56.048435,119.207108 56.524216,118.603554 56.999996,118.000000 
z"/>
<path fill="#21CFCA" opacity="1.000000" stroke="none" 
	d="
M242.000000,143.000000 
	C244.806046,139.360733 247.334290,135.459839 250.469696,132.130798 
	C260.244904,121.751961 270.095825,111.434052 280.221710,101.399590 
	C286.643860,95.035416 293.607788,89.217957 300.664368,83.077652 
	C301.000000,84.066673 301.000000,85.133339 300.653198,86.670349 
	C297.400848,89.725693 294.368164,92.182564 291.611572,94.917725 
	C279.254700,107.178635 266.951233,119.493752 254.703064,131.863159 
	C253.235870,133.344879 252.223297,135.276764 251.000000,137.000000 
	C248.784500,138.811310 246.569000,140.622620 243.843430,142.716980 
	C242.888901,143.000000 242.444443,143.000000 242.000000,143.000000 
z"/>
<path fill="#25F19E" opacity="1.000000" stroke="none" 
	d="
M133.333832,42.922985 
	C134.853500,35.238930 140.475937,30.593277 146.461853,26.006628 
	C150.575180,22.854843 154.120163,18.939568 157.791046,15.238473 
	C161.207718,11.793704 164.454880,8.180812 168.193176,4.203924 
	C169.073120,2.843940 169.536560,1.921968 170.000000,0.999999 
	C170.750000,1.000000 171.500000,1.000000 172.625000,0.999999 
	C169.945557,5.203552 167.286530,9.778724 163.756226,13.535059 
	C155.849869,21.947634 147.537003,29.980087 139.324905,38.101849 
	C137.580948,39.826630 135.560654,41.272011 133.333832,42.922985 
z"/>
<path fill="#21CFCA" opacity="1.000000" stroke="none" 
	d="
M251.335968,136.922226 
	C252.223297,135.276764 253.235870,133.344879 254.703064,131.863159 
	C266.951233,119.493752 279.254700,107.178635 291.611572,94.917725 
	C294.368164,92.182564 297.400848,89.725693 300.653198,87.070343 
	C301.000000,87.750000 301.000000,88.500000 301.000000,89.625000 
	C296.968018,93.577103 292.779663,96.994476 288.933197,100.761055 
	C277.029663,112.417473 265.260895,124.211494 253.414551,135.926559 
	C252.967880,136.368240 252.258743,136.544495 251.335968,136.922226 
z"/>
<path fill="#20C6D5" opacity="1.000000" stroke="none" 
	d="
M164.650116,278.033539 
	C162.577042,281.057892 160.247284,284.195709 157.709244,287.154907 
	C153.900665,291.595520 149.946014,295.910828 146.026733,300.639709 
	C144.933334,301.000000 143.866653,301.000000 142.399994,301.000000 
	C143.813583,298.686401 145.411850,296.155823 147.482422,294.101257 
	C152.979477,288.646820 158.680405,283.397797 164.650116,278.033539 
z"/>
<path fill="#20C6D5" opacity="1.000000" stroke="none" 
	d="
M301.000000,142.625000 
	C300.250000,143.000000 299.500000,143.000000 298.375000,143.000000 
	C298.768829,142.025055 299.537689,141.050110 300.653259,140.037582 
	C301.000000,140.750000 301.000000,141.500000 301.000000,142.625000 
z"/>
<path fill="#25F19E" opacity="1.000000" stroke="none" 
	d="
M169.750000,0.999999 
	C169.536560,1.921968 169.073120,2.843940 168.304840,3.882955 
	C168.245941,3.193063 168.491898,2.386127 168.868927,1.289595 
	C169.000000,1.000000 169.500000,1.000000 169.750000,0.999999 
z"/>
<path fill="#000000" opacity="1.000000" stroke="none" 
	d="
M92.067886,141.463531 
	C92.747581,137.679062 93.376411,134.317856 94.023849,130.533981 
	C94.692413,127.524231 95.354980,124.940216 95.988960,122.349205 
	C96.674248,119.548485 97.332832,116.741234 98.022781,113.524864 
	C99.276581,112.974701 100.510658,112.836510 101.927246,112.370453 
	C105.134552,111.695213 108.159348,111.347824 111.591965,110.916245 
	C119.726761,109.192574 127.453735,107.553093 135.518524,105.672089 
	C143.807175,101.854485 151.744690,98.248283 159.719055,94.725479 
	C161.507614,93.935356 163.425110,93.437050 165.726395,93.237885 
	C172.075943,99.463158 177.982346,105.254944 184.025101,111.355324 
	C189.072067,116.791855 193.982697,121.919785 199.029968,127.357162 
	C201.972458,130.143143 204.795502,132.600586 207.577866,135.103256 
	C209.305038,136.656784 211.413040,138.107391 209.856186,140.958344 
	C203.764542,149.897751 199.387009,159.592712 196.934570,170.559540 
	C195.264450,177.367371 193.644836,183.774139 192.021698,190.903412 
	C192.067993,192.746201 192.117798,193.866531 192.087616,195.226837 
	C191.966690,195.630402 191.925766,195.794006 191.884842,195.957596 
	C191.268723,198.072067 191.041580,200.425888 189.928650,202.234680 
	C188.782425,204.097565 187.007324,206.288269 185.091476,206.810867 
	C181.351624,207.831024 177.321915,207.788513 173.187866,208.533661 
	C166.917435,209.929611 160.871323,210.977905 154.412628,212.097656 
	C144.931213,214.455139 135.862381,216.741180 126.398033,219.100922 
	C113.960335,223.111389 101.874718,226.922928 89.906906,231.074051 
	C86.960770,232.095917 84.398453,234.224335 81.019043,235.930374 
	C80.515770,234.902557 80.236328,233.397690 80.856491,232.736099 
	C85.822159,227.438492 90.957870,222.300293 96.389565,217.059082 
	C98.002266,215.992813 99.395424,215.104675 100.510544,213.948410 
	C107.284241,206.924728 113.900497,199.746902 120.761108,192.810211 
	C124.930984,188.594101 130.310455,185.313736 133.591400,180.543396 
	C137.925705,174.241547 142.865860,171.765411 150.286407,172.932526 
	C157.484451,174.064651 163.218628,170.317276 166.439667,164.660522 
	C170.342484,157.806503 170.145859,150.080490 166.020203,142.540558 
	C161.440094,135.968872 151.624390,132.248322 144.339371,134.378021 
	C141.488144,135.211548 138.696686,136.661087 136.240601,138.355606 
	C129.572998,142.955780 129.004288,150.063446 130.179855,157.022980 
	C131.083771,162.374298 127.838364,164.696503 124.881844,167.547577 
	C123.240898,169.130020 121.200890,170.309402 119.618622,171.940079 
	C113.166748,178.589310 106.917885,185.437347 100.402916,192.022873 
	C96.346710,196.122986 91.785912,199.724594 87.738724,203.832825 
	C80.722137,210.955307 75.456703,219.957062 65.689110,224.189743 
	C65.694595,224.306534 65.928284,224.312057 66.387299,224.206543 
	C66.884392,223.471664 66.922470,222.842316 67.235313,222.083740 
	C68.162987,219.841919 68.815887,217.729340 69.471779,215.607086 
	C71.052856,216.093765 74.674606,208.299149 75.431931,202.862625 
	C78.115700,195.117767 80.473213,187.558533 82.830734,179.999313 
	C84.284325,174.118347 85.737907,168.237381 87.325760,162.100861 
	C88.979027,155.192459 90.498016,148.539612 92.067886,141.463531 
z"/>
<path fill="#21CFCA" opacity="1.000000" stroke="none" 
	d="
M192.167603,194.986847 
	C192.117798,193.866531 192.067993,192.746201 192.092590,191.312744 
	C194.059540,189.218658 196.023209,187.506866 197.832809,185.645309 
	C207.664444,175.531525 217.346924,165.269745 227.316086,155.294067 
	C231.682205,150.925110 236.607162,147.114609 241.560974,143.362000 
	C239.229080,147.115646 236.614548,150.557831 234.000000,154.000000 
	C233.708313,154.481247 233.416626,154.962479 232.728851,155.798676 
	C230.674469,157.483170 228.885956,158.680313 227.378601,160.163254 
	C215.611130,171.740158 203.897705,183.371979 192.167603,194.986847 
z"/>
<path fill="#21CFCA" opacity="1.000000" stroke="none" 
	d="
M192.087616,195.226837 
	C203.897705,183.371979 215.611130,171.740158 227.378601,160.163254 
	C228.885956,158.680313 230.674469,157.483170 232.666382,156.076813 
	C231.702744,157.976135 230.655487,160.188171 229.058044,161.881058 
	C225.321182,165.841187 221.298386,169.530121 217.431839,173.369614 
	C212.071777,178.692154 206.859879,184.170059 201.361862,189.344849 
	C198.721725,191.829773 195.570923,193.772156 192.268112,195.958923 
	C191.925766,195.794006 191.966690,195.630402 192.087616,195.226837 
z"/>
<path fill="#21CFCA" opacity="1.000000" stroke="none" 
	d="
M234.347473,153.929230 
	C236.614548,150.557831 239.229080,147.115646 241.921814,143.336731 
	C242.444443,143.000000 242.888901,143.000000 243.666672,143.000000 
	C244.353531,143.726166 245.157272,144.958878 244.994202,145.103806 
	C241.627167,148.096344 238.150146,150.965134 234.347473,153.929230 
z"/>
<path fill="#23DDB8" opacity="1.000000" stroke="none" 
	d="
M96.041534,217.113312 
	C90.957870,222.300293 85.822159,227.438492 80.856491,232.736099 
	C80.236328,233.397690 80.515770,234.902557 80.689758,236.092896 
	C79.570648,238.371323 78.449310,240.871353 76.660439,242.728363 
	C63.112457,256.792358 49.374031,270.673340 35.877312,284.785767 
	C34.334084,286.399414 33.915054,289.088165 32.963539,291.678528 
	C27.374130,286.928894 21.795958,281.779205 16.455099,276.097717 
	C22.069429,269.936035 27.456852,264.316010 32.821270,258.674133 
	C43.781933,247.146637 54.730228,235.607361 65.683624,224.072952 
	C75.456703,219.957062 80.722137,210.955307 87.738724,203.832825 
	C91.785912,199.724594 96.346710,196.122986 100.402916,192.022873 
	C106.917885,185.437347 113.166748,178.589310 119.618622,171.940079 
	C121.200890,170.309402 123.240898,169.130020 124.881844,167.547577 
	C127.838364,164.696503 131.083771,162.374298 130.179855,157.022980 
	C129.004288,150.063446 129.572998,142.955780 136.240601,138.355606 
	C138.696686,136.661087 141.488144,135.211548 144.339371,134.378021 
	C151.624390,132.248322 161.440094,135.968872 165.831848,142.826202 
	C159.786713,149.468414 153.941574,155.512421 148.011581,161.472000 
	C136.689636,172.850418 125.319237,184.180603 113.969131,195.530975 
	C108.949654,200.550613 103.780449,205.433578 98.999077,210.670624 
	C97.481560,212.332764 96.998161,214.939072 96.041534,217.113312 
z"/>
<path fill="#23DDB8" opacity="1.000000" stroke="none" 
	d="
M33.824768,292.672974 
	C33.687939,292.725159 33.388474,292.623138 32.999046,292.277771 
	C33.180092,292.164795 33.431107,292.326263 33.824768,292.672974 
z"/>
<path fill="#000000" opacity="1.000000" stroke="none" 
	d="
M189.613129,59.903015 
	C192.425674,61.814976 194.850357,63.798584 197.712494,66.217422 
	C202.087296,70.475365 206.024628,74.298073 210.070862,78.403069 
	C211.080551,79.470482 211.981369,80.255600 213.017792,81.347260 
	C215.398956,83.781631 217.644501,85.909454 220.024109,88.344391 
	C222.401840,90.783806 224.645493,92.916100 227.028778,95.362457 
	C231.073135,99.464165 234.977829,103.251793 238.882538,107.039421 
	C244.598602,113.678459 244.581940,115.420746 238.630325,121.859375 
	C236.086182,124.611687 234.884796,128.973434 230.241776,129.248154 
	C227.919922,129.385544 225.576309,129.155334 222.634644,128.857895 
	C218.387604,124.734085 214.748459,120.843758 210.970978,116.642075 
	C205.924454,111.871140 201.016281,107.411552 195.970886,102.642166 
	C194.049469,100.219597 192.436615,97.926743 190.445023,96.032013 
	C186.443878,92.225525 182.236084,88.636253 178.113571,84.957329 
	C177.057251,83.542557 175.937851,82.170059 174.956253,80.705208 
	C171.818741,76.022995 172.250778,70.983650 176.865234,67.823547 
	C180.874100,65.078171 183.351852,59.777115 189.613129,59.903015 
z"/>
<path fill="#22D7C0" opacity="1.000000" stroke="none" 
	d="
M239.250793,107.008942 
	C234.977829,103.251793 231.073135,99.464165 227.365631,95.216438 
	C229.497421,93.873764 231.886307,93.445679 233.295258,92.037277 
	C245.468155,79.868996 257.249329,67.302498 269.594208,55.315010 
	C277.019958,48.104240 285.242096,41.713623 293.106354,34.954437 
	C295.326813,39.739109 297.547302,44.523781 299.800354,49.676476 
	C296.238159,52.545391 292.208740,54.604328 289.131104,57.631035 
	C280.312958,66.303207 271.872070,75.359489 263.299561,84.280777 
	C257.145905,90.684769 251.080414,97.175217 244.834244,103.487228 
	C243.392319,104.944351 241.372803,105.829895 239.250793,107.008942 
z"/>
<path fill="#22D6C0" opacity="1.000000" stroke="none" 
	d="
M211.109329,116.953430 
	C214.748459,120.843758 218.387604,124.734085 222.209167,128.878357 
	C218.427765,132.986328 214.463943,136.840332 210.178162,140.826355 
	C211.413040,138.107391 209.305038,136.656784 207.577866,135.103256 
	C204.795502,132.600586 201.972458,130.143143 199.286469,127.137527 
	C203.307312,123.390121 207.208328,120.171776 211.109329,116.953430 
z"/>
<path fill="#23E0B4" opacity="1.000000" stroke="none" 
	d="
M177.739532,84.988510 
	C182.236084,88.636253 186.443878,92.225525 190.445023,96.032013 
	C192.436615,97.926743 194.049469,100.219597 195.645569,102.787773 
	C191.601227,105.844376 187.744995,108.445549 183.888748,111.046730 
	C177.982346,105.254944 172.075943,99.463158 166.030151,93.359558 
	C169.715683,90.371727 173.540588,87.695702 177.739532,84.988510 
z"/>
<path fill="#25F19E" opacity="1.000000" stroke="none" 
	d="
M56.713669,118.094666 
	C56.524216,118.603554 56.048435,119.207108 55.286331,119.905334 
	C55.475784,119.396446 55.951565,118.792892 56.713669,118.094666 
z"/>
<path fill="#24E2B1" opacity="1.000000" stroke="none" 
	d="
M82.461639,180.007355 
	C80.473213,187.558533 78.115700,195.117767 75.110992,202.723785 
	C72.969109,203.069092 71.106209,202.909058 70.051682,203.755783 
	C67.348335,205.926407 64.956383,208.497818 62.525440,210.992325 
	C55.229282,218.479141 48.107430,226.140900 40.671036,233.484772 
	C29.882626,244.138962 18.878550,254.574783 7.966456,265.103729 
	C6.979609,262.667725 5.992760,260.231750 4.981676,257.453857 
	C11.694709,249.704712 18.310219,242.181793 25.206038,234.925232 
	C31.207888,228.609406 37.534420,222.602539 43.701748,216.443405 
	C47.209465,212.940353 50.725685,209.444351 54.166676,205.876312 
	C59.309811,200.543350 64.186272,194.933914 69.565720,189.854645 
	C73.410454,186.224457 77.894020,183.270874 82.461639,180.007355 
z"/>
<path fill="#20C6D5" opacity="1.000000" stroke="none" 
	d="
M218.650101,223.033539 
	C217.003983,225.812912 215.330307,228.939240 212.954483,231.382889 
	C204.078903,240.511810 195.004257,249.448639 185.914749,258.366272 
	C184.782593,259.476990 183.114395,260.041351 181.347290,260.929443 
	C181.752914,259.749451 182.295868,258.292572 183.290939,257.279999 
	C194.192139,246.186722 205.155838,235.154739 216.140869,224.144318 
	C216.679459,223.604462 217.572311,223.418060 218.650101,223.033539 
z"/>
<path fill="#20C6D5" opacity="1.000000" stroke="none" 
	d="
M259.690247,180.118286 
	C258.896851,181.943985 257.793732,183.887955 256.345276,185.915955 
	C257.126831,184.078857 258.253693,182.157715 259.690247,180.118286 
z"/>
<path fill="#20C6D5" opacity="1.000000" stroke="none" 
	d="
M177.668396,265.076233 
	C176.554398,266.615845 175.108780,268.231720 173.331573,269.923767 
	C174.445602,268.384155 175.891205,266.768311 177.668396,265.076233 
z"/>
<path fill="#20C6D5" opacity="1.000000" stroke="none" 
	d="
M294.637024,145.028137 
	C293.886047,146.282974 292.772095,147.565933 291.329041,148.924454 
	C292.091339,147.685410 293.182678,146.370834 294.637024,145.028137 
z"/>
<path fill="#20C6D5" opacity="1.000000" stroke="none" 
	d="
M240.651917,201.033325 
	C239.886032,202.282959 238.772064,203.565933 237.329041,204.924438 
	C238.101273,203.688889 239.202560,202.377777 240.651917,201.033325 
z"/>
<path fill="#20C6D5" opacity="1.000000" stroke="none" 
	d="
M267.670959,174.075562 
	C266.886017,175.282959 265.772034,176.565918 264.329041,177.924438 
	C265.113983,176.717056 266.227966,175.434097 267.670959,174.075562 
z"/>
<path fill="#20C6D5" opacity="1.000000" stroke="none" 
	d="
M231.670959,210.075562 
	C230.886032,211.282974 229.772064,212.565933 228.329056,213.924454 
	C229.113983,212.717041 230.227951,211.434082 231.670959,210.075562 
z"/>
<path fill="#20C6D5" opacity="1.000000" stroke="none" 
	d="
M272.653259,168.037567 
	C272.213623,168.949188 271.427246,169.898392 270.320435,170.923782 
	C270.768829,170.025040 271.537659,169.050095 272.653259,168.037567 
z"/>
<path fill="#20C6D5" opacity="1.000000" stroke="none" 
	d="
M261.713654,178.094681 
	C261.524231,178.603561 261.048462,179.207123 260.286316,179.905334 
	C260.475769,179.396454 260.951538,178.792908 261.713654,178.094681 
z"/>
<path fill="#23E1B3" opacity="1.000000" stroke="none" 
	d="
M209.961975,78.120781 
	C206.024628,74.298073 202.087296,70.475365 198.017456,66.348480 
	C199.557693,65.005913 201.521652,64.251869 202.857224,62.884209 
	C213.739075,51.740929 224.316147,40.294273 235.367599,29.324394 
	C243.094666,21.654348 251.421524,14.588552 259.791504,7.101184 
	C262.663727,7.742189 265.224884,8.534887 267.717468,9.904734 
	C263.601196,15.430661 259.809937,20.619852 255.447021,25.273033 
	C248.544983,32.634296 241.168091,39.547924 234.163452,46.816082 
	C227.493973,53.736473 221.443695,61.312428 214.327438,67.718414 
	C210.809875,70.884888 208.831528,73.542938 209.961975,78.120781 
z"/>
<path fill="#23DABC" opacity="1.000000" stroke="none" 
	d="
M293.054321,34.597523 
	C285.242096,41.713623 277.019958,48.104240 269.594208,55.315010 
	C257.249329,67.302498 245.468155,79.868996 233.295258,92.037277 
	C231.886307,93.445679 229.497421,93.873764 227.225998,94.902359 
	C224.645493,92.916100 222.401840,90.783806 220.346893,88.238525 
	C228.518295,79.877022 236.515167,71.942665 244.478302,63.974602 
	C249.152863,59.297138 253.799057,54.590675 258.412964,49.853401 
	C265.710419,42.360863 272.911469,34.772923 280.304504,27.376528 
	C281.509277,26.171234 283.492249,25.743773 285.115509,24.956791 
	C287.744415,28.051397 290.373352,31.146004 293.054321,34.597523 
z"/>
<path fill="#23DDB8" opacity="1.000000" stroke="none" 
	d="
M284.977783,24.648247 
	C283.492249,25.743773 281.509277,26.171234 280.304504,27.376528 
	C272.911469,34.772923 265.710419,42.360863 258.412964,49.853401 
	C253.799057,54.590675 249.152863,59.297138 244.478302,63.974602 
	C236.515167,71.942665 228.518295,79.877022 220.212799,87.931412 
	C217.644501,85.909454 215.398956,83.781631 213.343842,81.237717 
	C234.370972,59.512329 255.207672,38.203030 276.044373,16.893734 
	C278.976288,19.375725 281.908173,21.857712 284.977783,24.648247 
z"/>
<path fill="#23DEB6" opacity="1.000000" stroke="none" 
	d="
M275.908203,16.578709 
	C255.207672,38.203030 234.370972,59.512329 213.208221,80.931168 
	C211.981369,80.255600 211.080551,79.470482 210.070862,78.403069 
	C208.831528,73.542938 210.809875,70.884888 214.327438,67.718414 
	C221.443695,61.312428 227.493973,53.736473 234.163452,46.816082 
	C241.168091,39.547924 248.544983,32.634296 255.447021,25.273033 
	C259.809937,20.619852 263.601196,15.430661 267.875916,10.216356 
	C270.659302,12.055117 273.215698,14.159402 275.908203,16.578709 
z"/>
<path fill="#23E0B4" opacity="1.000000" stroke="none" 
	d="
M8.097910,265.421204 
	C18.878550,254.574783 29.882626,244.138962 40.671036,233.484772 
	C48.107430,226.140900 55.229282,218.479141 62.525440,210.992325 
	C64.956383,208.497818 67.348335,205.926407 70.051682,203.755783 
	C71.106209,202.909058 72.969109,203.069092 74.784744,202.909409 
	C74.674606,208.299149 71.052856,216.093765 69.471779,215.607086 
	C68.815887,217.729340 68.162987,219.841919 66.888535,222.333359 
	C66.154091,223.245499 66.041191,223.778778 65.928284,224.312057 
	C65.928284,224.312057 65.694595,224.306534 65.689102,224.189743 
	C54.730228,235.607361 43.781933,247.146637 32.821270,258.674133 
	C27.456852,264.316010 22.069429,269.936035 16.436533,275.761932 
	C15.175341,275.192444 14.170030,274.426971 13.219648,273.304871 
	C12.905232,272.626801 12.535889,272.305298 12.166543,271.983795 
	C10.854150,269.902100 9.541758,267.820374 8.097910,265.421204 
z"/>
<path fill="#23DDB8" opacity="1.000000" stroke="none" 
	d="
M12.123297,272.239685 
	C12.535889,272.305298 12.905232,272.626801 13.089859,273.002747 
	C12.630111,272.869965 12.355081,272.682770 12.123297,272.239685 
z"/>
<path fill="#23DABC" opacity="1.000000" stroke="none" 
	d="
M96.389572,217.059082 
	C96.998161,214.939072 97.481560,212.332764 98.999077,210.670624 
	C103.780449,205.433578 108.949654,200.550613 113.969131,195.530975 
	C125.319237,184.180603 136.689636,172.850418 148.011581,161.472000 
	C153.941574,155.512421 159.786713,149.468414 165.858536,143.176895 
	C170.145859,150.080490 170.342484,157.806503 166.439667,164.660522 
	C163.218628,170.317276 157.484451,174.064651 150.286407,172.932526 
	C142.865860,171.765411 137.925705,174.241547 133.591400,180.543396 
	C130.310455,185.313736 124.930984,188.594101 120.761108,192.810211 
	C113.900497,199.746902 107.284241,206.924728 100.510544,213.948410 
	C99.395424,215.104675 98.002266,215.992813 96.389572,217.059082 
z"/>
<path fill="#23DABB" opacity="1.000000" stroke="none" 
	d="
M184.025101,111.355324 
	C187.744995,108.445549 191.601227,105.844376 195.782791,103.097580 
	C201.016281,107.411552 205.924454,111.871140 210.970978,116.642075 
	C207.208328,120.171776 203.307312,123.390121 199.149811,126.828094 
	C193.982697,121.919785 189.072067,116.791855 184.025101,111.355324 
z"/>
<path fill="#23DDB8" opacity="1.000000" stroke="none" 
	d="
M66.387299,224.206543 
	C66.041191,223.778778 66.154091,223.245499 66.613770,222.462585 
	C66.922470,222.842316 66.884392,223.471664 66.387299,224.206543 
z"/>
</svg>