<svg version="1.1" id="Layer_1" xmlns="http://www.w3.org/2000/svg" xmlns:xlink="http://www.w3.org/1999/xlink" x="0px" y="0px"
	 width="100%" viewBox="0 0 300 271" enable-background="new 0 0 300 271" xml:space="preserve">
<path fill="#000000" opacity="1.000000" stroke="none" 
	d="
M203.780853,1.331285 
	C235.100021,1.000000 266.200317,1.059794 297.299622,0.910476 
	C300.523438,0.894998 301.082886,1.768424 301.072845,4.784254 
	C300.958282,39.210098 301.000000,73.636459 301.000000,108.531342 
	C297.211975,110.180145 297.086212,106.927856 296.405182,104.888397 
	C293.894714,97.370911 290.554901,90.261009 286.342560,83.142059 
	C281.474152,73.691788 275.670898,65.298470 268.988464,57.089661 
	C268.565643,56.700130 268.413910,56.527843 268.081299,56.066322 
	C267.471283,54.534996 267.067078,53.280075 265.869202,52.087147 
	C261.865570,48.015293 259.174103,43.297039 255.233612,39.160549 
	C251.082809,35.391716 248.082977,30.962780 243.598251,27.531898 
	C243.115768,27.221891 242.926682,27.091341 242.483551,26.728764 
	C241.764282,26.001438 241.355591,25.455381 240.614960,24.750526 
	C234.228790,19.306738 227.965149,14.274179 220.460693,10.404348 
	C215.309158,7.729420 210.265045,5.728306 204.709641,3.963713 
	C203.767075,3.193911 203.455826,2.509294 203.780853,1.331285 
z"/>
<path fill="#000000" opacity="1.000000" stroke="none" 
	d="
M1.324809,109.200073 
	C1.000000,74.241890 1.049915,39.483589 0.915756,4.726003 
	C0.903562,1.566833 1.679031,0.908178 4.758465,0.921507 
	C34.859421,1.051803 64.961166,1.000000 95.531342,1.000000 
	C96.990723,5.484904 93.094185,5.122969 90.376640,6.375785 
	C85.466637,7.912971 81.606041,10.757893 77.020302,12.895741 
	C73.156525,15.447042 69.467339,17.648718 66.090202,20.864223 
	C62.517395,23.608511 59.412292,26.361050 56.303429,29.622471 
	C52.766533,32.231216 50.445347,35.566246 47.386475,38.638462 
	C47.038033,39.079571 46.896660,39.255371 46.313225,39.950035 
	C41.604977,44.971115 37.873604,49.897938 34.156624,55.277458 
	C29.729403,60.385708 26.523209,65.971458 22.396646,71.286011 
	C19.238808,76.385925 16.186132,81.150612 13.307673,86.438927 
	C10.614019,93.135292 6.910697,99.012650 5.235802,105.750328 
	C4.919826,107.021423 4.176882,108.140114 2.745370,109.132744 
	C2.154593,109.339127 1.902106,109.369644 1.324809,109.200073 
z"/>
<path fill="#000000" opacity="1.000000" stroke="none" 
	d="
M300.644867,166.779968 
	C301.000000,200.746552 300.954224,234.493271 301.077332,268.239380 
	C301.088501,271.307983 300.448730,272.113647 297.278839,272.087219 
	C276.832855,271.916718 256.384735,272.000000 235.468658,272.000000 
	C233.737289,268.891571 236.296814,268.426636 238.143173,267.734375 
	C240.417130,266.881775 242.924500,266.768921 245.557007,265.696960 
	C249.581940,264.402954 252.892960,262.316010 256.955139,261.243652 
	C259.152039,259.813690 261.426178,259.211761 263.389160,257.400696 
	C267.994019,255.191727 271.354370,251.943253 274.863403,248.345276 
	C279.584991,243.443695 283.803223,238.609680 286.008514,231.987823 
	C286.290222,231.224594 286.436188,230.783264 286.647217,229.989105 
	C287.015594,228.984467 287.325562,228.335098 287.444824,227.242889 
	C290.479553,220.485092 290.066132,213.420898 291.457336,206.296249 
	C290.636688,198.175369 290.842926,190.454880 291.231018,182.304123 
	C292.764008,177.614304 295.479492,173.928726 296.829376,169.607330 
	C297.319031,168.039764 298.196198,166.502243 300.644867,166.779968 
z"/>
<path fill="#000000" opacity="1.000000" stroke="none" 
	d="
M67.219284,271.669067 
	C46.220100,272.000000 25.439301,271.903687 4.661224,272.098328 
	C1.341111,272.129425 0.925918,271.102264 0.934873,268.179321 
	C1.037253,234.765564 1.000000,201.351395 1.000000,167.468658 
	C3.478874,165.713547 4.415967,167.676453 4.963280,169.270706 
	C6.310981,173.196350 8.572281,176.677444 10.207995,180.899628 
	C11.739016,185.949234 9.497173,190.524414 10.010832,195.564972 
	C9.905316,197.229370 9.716866,198.496246 10.172858,200.126404 
	C10.298720,200.753448 10.345138,201.005341 10.431596,201.639404 
	C11.085607,206.317383 10.960985,210.700516 12.049118,215.321625 
	C10.490721,221.710526 14.222509,226.481049 15.992481,232.068573 
	C16.709896,233.452042 16.822351,234.656693 17.372786,236.085846 
	C24.520752,246.930939 33.268417,255.508759 44.760742,261.135986 
	C47.151505,262.306641 49.948788,262.408539 52.383701,264.331848 
	C53.364311,264.799164 54.011906,265.139679 55.092648,265.412842 
	C57.995686,266.166229 60.501274,266.918274 63.055984,267.518463 
	C65.067154,267.990967 67.362091,268.489624 67.219284,271.669067 
z"/>
<path fill="#BF96FF" opacity="1.000000" stroke="none" 
	d="
M216.323242,271.777252 
	C211.310745,272.000000 206.621490,272.000000 201.466125,272.000000 
	C199.795227,270.835785 198.680191,269.608582 198.199631,267.945282 
	C194.507355,255.165710 188.466248,243.264175 184.414185,230.586395 
	C181.140686,220.344604 177.053345,210.333038 173.294403,200.231491 
	C172.769608,198.821182 172.240677,197.436203 172.053024,195.543304 
	C174.340942,190.012222 182.087906,185.613144 188.141586,186.413132 
	C192.219360,191.007324 192.458542,196.783676 194.431396,201.864258 
	C202.384842,222.346359 210.513382,242.767120 217.764999,263.512482 
	C218.666946,266.092743 221.221146,269.485657 216.323242,271.777252 
z"/>
<path fill="#CB90FF" opacity="1.000000" stroke="none" 
	d="
M247.249359,266.524017 
	C244.118057,269.646759 240.015671,268.464325 236.682587,269.914917 
	C235.777267,270.308929 234.947113,270.579681 234.675018,271.684723 
	C232.629440,272.000000 230.258896,272.000000 227.444168,272.000000 
	C223.992111,266.241516 223.660522,259.828552 223.295502,253.632004 
	C222.653885,242.739899 218.983917,232.818253 214.648819,223.115570 
	C209.838333,212.348938 205.974838,201.233124 201.795044,190.237167 
	C200.677963,187.298401 199.389694,184.430008 198.266541,181.123627 
	C198.247498,180.325760 198.311081,179.869156 198.607040,179.537140 
	C198.802475,179.317825 199.380951,179.163483 198.233673,179.101379 
	C197.008087,177.909958 197.313828,176.789642 197.887405,175.326782 
	C199.092941,173.478622 200.284317,172.203873 202.691742,172.519623 
	C203.756439,172.663055 202.992981,174.330185 204.040207,173.719254 
	C206.178146,172.472046 208.393433,171.796539 211.220886,172.168427 
	C212.996811,173.090012 213.473175,174.505890 214.015503,175.918869 
	C219.432709,190.032852 223.980621,204.473099 229.389359,218.567291 
	C234.798187,232.661774 238.686981,247.399246 246.192001,260.663849 
	C247.165436,262.384277 248.458282,264.041412 247.249359,266.524017 
z"/>
<path fill="#C593FF" opacity="1.000000" stroke="none" 
	d="
M198.796295,178.797943 
	C204.440277,188.670883 207.425507,199.398911 211.285721,209.659180 
	C215.952072,222.062225 223.385971,233.692520 224.430069,247.250046 
	C225.049362,255.291733 227.558426,263.104950 227.013184,271.622620 
	C223.638718,272.000000 220.277420,272.000000 216.458069,272.000000 
	C218.287521,270.557495 217.506027,268.455566 216.894180,266.651764 
	C214.603958,259.899963 212.304947,253.142899 209.715271,246.502457 
	C202.131241,227.055328 194.184509,207.745209 188.011215,187.385315 
	C187.463364,183.632828 191.686737,182.166321 191.419952,178.503311 
	C193.320862,175.960495 195.438431,174.690338 198.680695,175.616333 
	C198.755554,176.745667 197.977341,177.565872 198.796295,178.797943 
z"/>
<path fill="#B899FF" opacity="1.000000" stroke="none" 
	d="
M172.686874,194.796249 
	C179.841141,211.879089 185.582108,229.163223 191.922241,246.215210 
	C195.009537,254.518585 198.394165,262.720886 200.985504,271.610748 
	C195.977905,272.000000 190.955811,272.000000 185.466858,272.000000 
	C184.572662,271.494659 183.964203,271.075623 183.780365,270.442810 
	C179.337128,255.149139 171.292694,241.213425 166.983978,225.870651 
	C164.968277,218.692993 160.893295,212.210434 159.842758,204.704712 
	C159.582214,202.843246 157.643127,202.309952 156.633286,200.557266 
	C156.517258,197.925705 158.132843,197.003067 160.237091,196.060150 
	C164.648346,196.514893 168.254913,193.330704 172.686874,194.796249 
z"/>
<path fill="#D787FF" opacity="1.000000" stroke="none" 
	d="
M155.771088,1.341645 
	C162.021149,1.000000 168.042297,1.000000 174.531723,1.000000 
	C178.719009,3.466933 179.215591,7.659619 180.261978,11.413389 
	C181.300278,15.138196 182.590897,18.665861 184.853653,22.248276 
	C189.640411,33.420326 193.276337,44.618748 197.694153,55.531754 
	C203.609314,70.143547 209.239090,84.918259 214.074066,99.957191 
	C215.758575,105.196785 218.885422,109.853065 220.349289,115.175049 
	C221.170380,118.160233 222.618027,121.238991 219.768921,124.350845 
	C213.886627,122.415962 208.528961,120.040550 204.969727,114.502556 
	C205.454651,109.184013 204.875000,104.523857 201.708405,100.442657 
	C201.102554,99.661835 200.786530,98.681290 200.478943,97.730331 
	C195.082962,81.047363 187.620972,65.125595 182.053635,48.538151 
	C178.895462,39.128651 173.990341,30.395144 171.800476,20.659723 
	C171.546173,19.529167 171.190933,18.248938 170.320648,17.543180 
	C165.608353,13.721709 161.531021,9.238647 156.791550,4.878556 
	C155.686462,3.806191 155.258835,2.855731 155.771088,1.341645 
z"/>
<path fill="#CF8BFF" opacity="1.000000" stroke="none" 
	d="
M155.600006,1.000000 
	C156.246658,1.805731 156.493301,2.611463 156.872116,3.707555 
	C161.705353,8.282571 163.877045,13.991320 166.024506,19.757679 
	C173.654785,40.246468 181.258148,60.745312 189.143265,81.138840 
	C192.488663,89.791145 194.929672,98.825241 200.457367,106.507622 
	C201.255753,107.617218 201.339203,108.993759 200.661957,110.673859 
	C194.560974,112.684212 190.905487,108.763474 186.749451,105.281860 
	C185.846573,103.827721 185.694443,101.949928 183.207901,102.733109 
	C181.440460,102.603416 180.245422,102.111511 179.892334,100.256409 
	C180.299194,99.786018 180.756058,99.511879 180.410477,99.192841 
	C179.935379,98.754242 180.617767,99.043694 179.861511,99.370422 
	C179.430176,99.027229 179.294022,98.838829 179.019287,98.318283 
	C178.111450,90.676498 176.606445,83.663292 173.110596,77.003265 
	C170.115189,71.296631 168.368210,64.967331 166.126312,58.903015 
	C160.541977,43.797401 155.475784,28.500233 148.937683,13.757086 
	C148.128677,11.932800 147.428726,10.054374 147.273621,7.650216 
	C147.788818,4.710951 149.543137,3.040508 151.740387,1.252186 
	C153.066666,1.000000 154.133347,1.000000 155.600006,1.000000 
z"/>
<path fill="#B29CFF" opacity="1.000000" stroke="none" 
	d="
M156.647842,199.622986 
	C160.331573,200.356354 162.023712,201.951080 162.091797,205.691910 
	C162.202545,211.776794 166.086975,216.737274 167.827850,222.386002 
	C170.400330,230.733078 173.814392,238.818359 176.475876,247.141205 
	C178.398727,253.154236 182.893555,257.953888 184.028488,264.322083 
	C184.433762,266.596130 185.148193,268.801178 184.999939,271.574341 
	C180.975449,272.000000 176.950912,272.000000 172.463181,272.000000 
	C167.355927,262.311981 162.162247,252.834869 158.894791,242.575775 
	C156.069031,233.703568 153.212540,224.864395 149.616074,216.273438 
	C148.192566,212.873077 147.287399,209.349777 147.186462,205.247253 
	C149.119598,201.126434 151.840836,198.764694 156.647842,199.622986 
z"/>
<path fill="#AD9FFF" opacity="1.000000" stroke="none" 
	d="
M147.580063,204.715164 
	C150.387497,207.780762 149.465897,211.635162 150.999344,214.918579 
	C156.873062,227.495438 159.883362,241.150970 165.194717,253.951309 
	C166.637375,257.428070 168.692261,260.655975 170.534515,263.959961 
	C171.796143,266.222626 172.169769,268.626099 172.000031,271.579926 
	C167.643097,272.000000 163.286194,272.000000 158.464645,272.000000 
	C157.644745,271.609589 157.315964,271.198059 156.848999,270.408569 
	C156.388092,268.924530 156.233887,267.659027 155.581345,266.752411 
	C145.398239,252.605209 144.092545,235.032501 137.337860,219.565186 
	C135.837814,216.130310 136.659302,212.928238 139.934509,210.831116 
	C141.281998,209.968307 141.455490,208.774628 141.964111,207.147171 
	C143.398911,205.069687 145.039032,204.217514 147.580063,204.715164 
z"/>
<path fill="#E076FF" opacity="1.000000" stroke="none" 
	d="
M203.541931,1.000000 
	C202.803162,1.811145 204.084427,2.225985 204.645203,2.991818 
	C209.302383,4.975319 211.803726,8.359167 213.010254,12.700788 
	C216.247650,24.350378 217.787964,36.363834 220.471680,48.134506 
	C220.654449,48.936073 220.483551,49.783489 220.114914,50.962822 
	C219.806854,51.547756 219.651215,51.760578 219.165863,52.182831 
	C215.521652,52.529705 214.093399,49.745392 212.060196,47.946819 
	C210.461349,46.532471 209.369690,44.591396 207.200989,43.216080 
	C203.830215,40.386879 200.261169,38.232395 198.646118,33.813278 
	C195.815582,24.257036 194.597565,14.737293 192.188385,5.489409 
	C191.849884,4.190000 191.757751,2.877817 192.751221,1.325547 
	C196.361282,1.000000 199.722580,1.000000 203.541931,1.000000 
z"/>
<path fill="#6F98FF" opacity="1.000000" stroke="none" 
	d="
M93.251724,271.703400 
	C88.643097,272.000000 84.286201,272.000000 79.464645,272.000000 
	C75.283745,265.963928 70.766830,260.367676 68.691925,252.998535 
	C67.626770,247.725662 66.568649,242.856262 65.267067,238.042877 
	C64.650658,235.763367 64.121414,233.491714 65.957703,231.058838 
	C70.181526,228.961044 72.613792,232.260147 76.004143,233.688812 
	C78.012787,234.710464 79.416756,235.877304 80.837860,237.619888 
	C84.643730,246.609985 88.477097,255.158966 92.703728,263.531921 
	C93.959229,266.019043 95.389999,268.565582 93.251724,271.703400 
z"/>
<path fill="#EC55FF" opacity="1.000000" stroke="none" 
	d="
M301.000000,166.583344 
	C299.713348,165.765411 299.174652,167.268982 299.126648,167.828598 
	C298.704407,172.751251 295.644135,176.525894 293.363373,180.929779 
	C290.063660,181.958710 288.288361,180.074875 287.923523,177.791336 
	C285.808929,164.555420 280.838287,152.084763 277.895386,138.685623 
	C279.364349,135.581345 279.316040,132.641464 279.383972,129.708939 
	C279.445068,127.072525 279.571411,124.427948 282.433411,122.590744 
	C286.366943,123.197464 286.440369,126.425545 287.335388,128.951004 
	C290.424194,137.666946 291.933746,146.931976 296.562317,155.118393 
	C297.786133,157.282913 299.008087,159.433472 300.741211,161.717850 
	C301.000000,163.388885 301.000000,164.777786 301.000000,166.583344 
z"/>
<path fill="#679CFF" opacity="1.000000" stroke="none" 
	d="
M69.741852,252.729599 
	C71.838104,259.645721 78.405701,263.956512 78.997841,271.609589 
	C75.307091,272.000000 71.614182,272.000000 67.460632,272.000000 
	C67.078102,268.640076 63.837357,269.372864 62.491047,269.235046 
	C59.694534,268.948853 57.231617,268.143280 54.393372,266.909088 
	C53.679966,266.444153 53.428490,266.014496 53.177948,265.171173 
	C53.122353,264.552032 53.141663,264.302124 53.281338,263.698425 
	C55.024887,259.772766 52.939331,256.669586 52.156212,253.397385 
	C51.095943,248.967133 47.823963,245.173996 48.581806,239.953995 
	C49.363819,239.090897 50.059853,238.787659 51.210724,238.614838 
	C53.680550,238.510895 55.681885,239.128479 56.994549,240.621536 
	C60.805580,244.956268 65.393936,248.440033 69.741852,252.729599 
z"/>
<path fill="#5D9AFF" opacity="1.000000" stroke="none" 
	d="
M1.000000,109.468658 
	C1.190097,109.186638 1.380195,109.373268 1.873913,109.300102 
	C6.346042,107.428894 8.642506,108.116692 10.389863,112.263390 
	C14.376346,121.723793 17.374063,131.487503 17.988043,141.827423 
	C18.145016,144.470963 18.201370,147.109512 19.181870,150.054230 
	C19.709150,152.188202 19.420143,153.826660 18.506226,155.789886 
	C18.058672,156.960526 17.562899,157.598740 16.575867,158.322632 
	C13.164844,159.179596 12.315447,156.799988 11.209105,154.814682 
	C7.851933,148.790237 4.460332,142.783508 1.251355,136.273285 
	C1.000000,127.312439 1.000000,118.624870 1.000000,109.468658 
z"/>
<path fill="#DA7DFF" opacity="1.000000" stroke="none" 
	d="
M192.532059,1.000000 
	C195.875351,11.604922 197.959839,22.381723 199.994476,33.586777 
	C196.205414,36.014435 195.232697,31.779945 192.484131,30.608648 
	C189.456009,28.239641 186.127228,26.761639 184.073639,23.344208 
	C178.813293,19.418503 179.608032,13.105481 177.295181,8.208740 
	C176.329620,6.164446 175.827209,3.901394 175.057098,1.368904 
	C180.688034,1.000000 186.376083,1.000000 192.532059,1.000000 
z"/>
<path fill="#F755FF" opacity="1.000000" stroke="none" 
	d="
M286.736816,81.755402 
	C292.589447,88.412468 295.271637,96.243484 297.986816,104.049698 
	C298.657623,105.978271 298.629395,108.189003 300.691589,109.324791 
	C301.000000,117.354233 301.000000,125.708466 301.000000,134.531342 
	C299.253510,136.288864 297.773621,135.367386 296.662018,134.158844 
	C292.096832,129.195419 287.778595,124.047829 286.449677,116.693222 
	C286.221771,109.416458 284.534790,102.602676 285.790466,95.691238 
	C286.314026,92.809303 284.982330,90.226982 284.345123,87.521156 
	C283.809052,85.244957 282.749817,82.545410 286.736816,81.755402 
z"/>
<path fill="#7494FF" opacity="1.000000" stroke="none" 
	d="
M93.466118,272.000000 
	C93.400604,268.511414 91.652229,265.741730 90.269714,262.718140 
	C86.664856,254.834305 81.923538,247.418869 80.013992,238.416168 
	C83.347900,236.648209 85.588562,239.262421 88.624077,240.422638 
	C92.891129,242.846375 97.677650,243.603409 101.025414,247.567505 
	C102.300865,253.764282 104.767723,259.111664 107.229095,264.464325 
	C108.236214,266.654480 109.799782,268.764893 108.243423,271.692749 
	C103.310745,272.000000 98.621490,272.000000 93.466118,272.000000 
z"/>
<path fill="#AE6DFF" opacity="1.000000" stroke="none" 
	d="
M151.531342,1.000000 
	C151.484390,3.263858 151.103729,5.614184 148.223618,6.754888 
	C146.034302,10.337458 142.267776,10.449526 138.930542,12.056404 
	C135.368149,13.659979 132.224838,15.287439 128.893875,17.344969 
	C125.395012,18.877554 123.143539,22.395844 118.689308,21.376373 
	C114.650658,15.189832 112.492699,8.737858 112.753296,1.318755 
	C125.687561,1.000000 138.375122,1.000000 151.531342,1.000000 
z"/>
<path fill="#5B9FFF" opacity="1.000000" stroke="none" 
	d="
M1.000000,136.468658 
	C3.296354,136.236526 4.660150,137.761322 5.277063,139.718628 
	C7.200493,145.821121 11.979644,150.435318 13.893053,156.532913 
	C14.059461,157.063202 14.824763,157.405548 15.651064,157.917984 
	C17.794685,159.600647 17.304121,161.663589 16.939306,163.573395 
	C15.914732,168.937042 15.100627,174.349335 13.348715,179.964630 
	C12.290334,181.613434 11.137472,182.014099 9.312628,181.271301 
	C4.907901,176.985336 4.474652,171.065277 1.305023,166.677429 
	C1.000000,156.979111 1.000000,146.958206 1.000000,136.468658 
z"/>
<path fill="#F253FF" opacity="1.000000" stroke="none" 
	d="
M287.613007,116.693344 
	C290.317566,124.194336 294.469452,130.126389 300.657837,134.946091 
	C301.000000,143.687561 301.000000,152.375137 301.000000,161.531342 
	C294.044189,160.491028 293.778076,153.769592 291.760376,149.011673 
	C288.286224,140.819382 286.177887,132.047913 283.248535,123.260315 
	C281.173157,121.454788 281.242310,119.569412 282.312622,117.146393 
	C284.062622,115.588921 285.606506,115.487785 287.613007,116.693344 
z"/>
<path fill="#9D73FF" opacity="1.000000" stroke="none" 
	d="
M88.709251,5.481190 
	C91.211754,3.281208 94.898239,4.499387 96.320580,1.290413 
	C97.388893,1.000000 98.777779,1.000000 100.583336,1.000000 
	C103.884712,6.997711 104.686073,13.654429 106.957306,19.853827 
	C107.980080,22.645540 108.940742,25.537489 108.409576,29.038536 
	C107.215164,33.474606 103.792000,35.358578 100.303780,37.690208 
	C99.349251,37.915421 98.793831,37.898556 97.852448,37.616371 
	C95.235931,35.897816 94.844368,33.360676 93.929817,31.054735 
	C91.596260,25.170919 89.860870,19.106329 88.275772,12.998693 
	C87.661934,10.633470 86.791664,8.151916 88.709251,5.481190 
z"/>
<path fill="#7A8EFF" opacity="1.000000" stroke="none" 
	d="
M108.467606,272.000000 
	C107.180405,266.306152 103.317154,261.862610 101.616203,256.491760 
	C100.808846,253.942474 99.779297,251.552612 100.001068,248.409866 
	C100.193497,247.827042 100.385590,247.663986 100.931808,247.366089 
	C107.639938,247.954544 112.879280,251.666336 119.084793,253.903046 
	C120.359879,254.638107 121.075882,255.415710 121.896667,256.640076 
	C122.887558,261.864685 126.867050,265.988312 125.245552,271.687500 
	C119.645073,272.000000 114.290138,272.000000 108.467606,272.000000 
z"/>
<path fill="#A570FF" opacity="1.000000" stroke="none" 
	d="
M107.310059,30.161991 
	C106.965019,24.122217 104.856750,18.718025 102.839653,13.398837 
	C101.395737,9.591157 100.819176,5.855924 100.999512,1.446712 
	C104.692909,1.000000 108.385818,1.000000 112.539368,1.000000 
	C114.964775,7.429261 116.929550,13.858521 118.954025,20.663935 
	C119.595154,24.182047 116.713188,24.885614 114.882515,26.755280 
	C112.378540,28.309380 110.465096,30.293133 107.310059,30.161991 
z"/>
<path fill="#8082FF" opacity="1.000000" stroke="none" 
	d="
M125.468269,272.000000 
	C124.749344,266.955231 120.612038,263.002747 121.002617,257.366150 
	C122.855042,255.010468 124.996140,255.738251 127.025864,256.439392 
	C130.631088,257.684784 134.311478,258.725555 138.215607,260.337708 
	C141.647018,260.652344 144.450302,261.763885 147.273819,262.737305 
	C149.628387,263.549072 151.391479,264.981842 150.982147,268.257599 
	C149.612061,271.411896 146.695786,270.538086 144.309692,271.753479 
	C137.978851,272.000000 131.957687,272.000000 125.468269,272.000000 
z"/>
<path fill="#000000" opacity="1.000000" stroke="none" 
	d="
M144.464645,272.000000 
	C144.133575,268.182281 148.012894,270.907074 149.636139,268.914185 
	C152.654282,266.940277 155.063995,267.408173 157.638031,269.808716 
	C158.174423,270.597351 158.401230,271.063965 158.314026,271.765289 
	C153.643097,272.000000 149.286194,272.000000 144.464645,272.000000 
z"/>
<path fill="#EB6AFF" opacity="1.000000" stroke="none" 
	d="
M220.753174,9.434893 
	C226.170654,10.716358 230.369553,14.148730 234.399292,17.348377 
	C236.824280,19.273825 239.868973,20.635529 241.904785,23.577755 
	C242.448303,24.398373 242.469330,25.114849 243.198761,25.364302 
	C243.441330,25.151108 243.756317,25.232683 243.800476,25.389267 
	C243.749847,27.133341 244.672928,28.250687 245.777786,29.704540 
	C246.015411,30.296179 246.082855,30.545940 246.175568,31.186275 
	C247.278946,41.087460 250.133316,50.325142 250.551941,60.345116 
	C250.686600,65.583870 250.279587,70.302246 248.130981,74.756378 
	C247.344131,76.387558 247.018402,78.302269 244.348312,78.488365 
	C242.081192,77.048698 241.414200,74.965073 240.773911,72.929939 
	C236.353668,58.880211 232.574509,44.653767 229.001801,29.981621 
	C227.374344,23.880613 225.687515,18.243500 221.380264,13.807366 
	C220.309341,12.704394 219.890350,11.260731 220.753174,9.434893 
z"/>
<path fill="#E571FF" opacity="1.000000" stroke="none" 
	d="
M220.667770,9.016891 
	C222.293900,14.003622 227.071945,16.726715 228.420319,21.626150 
	C229.020035,23.805340 230.225418,25.809418 229.999680,28.595562 
	C230.018845,36.982121 227.308807,44.740089 228.120193,52.806660 
	C228.298386,54.578144 227.769760,56.461792 226.105408,58.156769 
	C221.603775,58.816273 219.716248,56.364967 218.856323,52.403122 
	C216.837601,41.023907 214.530777,30.065222 212.578903,19.043676 
	C211.540359,13.179471 209.608780,7.932498 205.087982,3.488332 
	C210.702942,3.479236 215.803162,5.410630 220.667770,9.016891 
z"/>
<path fill="#F25FFF" opacity="1.000000" stroke="none" 
	d="
M255.645447,37.994671 
	C258.433411,41.785408 263.047028,43.973385 264.386658,48.756554 
	C264.572449,49.419895 265.922882,49.757053 266.890167,50.566860 
	C267.499603,52.087780 267.143555,53.589916 268.608459,54.747974 
	C268.822937,55.004936 268.984070,55.432793 269.012726,55.659588 
	C277.752960,65.937920 276.778992,78.788475 278.790070,90.693970 
	C279.519043,95.009354 281.466370,99.367805 279.964722,104.311356 
	C278.044159,106.491394 276.332153,105.640869 275.096405,104.252052 
	C271.400940,100.098892 266.156372,97.506569 263.117767,92.151489 
	C262.214264,90.245377 262.040527,88.613441 262.261322,86.530319 
	C260.700378,75.662537 260.889191,64.996399 258.873993,54.579578 
	C258.145905,50.815952 256.741058,47.271721 254.565536,44.074661 
	C253.073212,41.881607 252.641724,39.821877 255.645447,37.994671 
z"/>
<path fill="#EF65FF" opacity="1.000000" stroke="none" 
	d="
M255.912979,37.573414 
	C254.939301,40.082115 254.056183,41.492771 257.026215,43.801125 
	C259.336334,45.596581 260.291534,49.899128 260.692169,53.226677 
	C261.496277,59.905823 263.249756,66.499420 262.975281,73.291512 
	C262.813477,77.295891 263.252350,81.228729 263.994659,85.572296 
	C262.188171,87.241234 260.987488,85.976982 260.451111,84.667938 
	C257.205292,76.746658 250.969803,70.318985 249.023743,61.376701 
	C248.356964,51.122681 244.889572,41.659111 244.856995,30.860306 
	C242.867371,29.432503 242.907883,27.961763 243.658905,25.910549 
	C247.826370,29.452456 251.808075,33.359062 255.912979,37.573414 
z"/>
<path fill="#F659FF" opacity="1.000000" stroke="none" 
	d="
M278.744263,105.336044 
	C277.791443,96.542107 276.640259,88.076866 275.352386,79.632477 
	C274.732819,75.570145 273.846649,71.548752 273.097565,67.505791 
	C272.606049,64.853210 272.903290,61.963078 269.727966,60.414032 
	C268.552673,59.840683 269.071014,57.991405 269.032410,56.287415 
	C270.804077,55.745850 271.809296,57.017399 272.597595,58.177761 
	C277.447144,65.316154 282.192535,72.525566 286.929962,79.739311 
	C287.163300,80.094604 286.998444,80.711380 287.070984,81.581192 
	C284.104187,82.658943 285.257202,84.702354 285.975464,86.228455 
	C288.045502,90.626648 287.792084,94.976707 287.334320,99.753189 
	C286.823303,105.084877 288.364441,110.587006 288.000000,116.535484 
	C286.611450,116.999802 285.222870,116.999908 283.417786,116.999985 
	C279.243347,114.885147 277.612030,110.789490 278.744263,105.336044 
z"/>
<path fill="#F659FF" opacity="1.000000" stroke="none" 
	d="
M268.895264,54.659901 
	C266.770294,54.619160 265.759308,53.635120 266.920959,51.181854 
	C268.288666,51.693031 268.516113,53.066765 268.895264,54.659901 
z"/>
<path fill="#EF65FF" opacity="1.000000" stroke="none" 
	d="
M243.301392,24.950157 
	C242.805573,25.299522 242.368835,25.074615 242.089813,24.175762 
	C242.412964,24.178806 242.787201,24.464005 243.301392,24.950157 
z"/>
<path fill="#8082FF" opacity="1.000000" stroke="none" 
	d="
M45.811901,38.091904 
	C48.755791,34.975792 51.548618,32.066219 54.651928,29.024635 
	C56.001785,29.678305 55.982483,30.678406 55.396149,31.947176 
	C54.981049,32.282707 54.804714,32.457367 54.719418,32.654903 
	C54.929703,32.472771 55.172573,32.349106 55.754433,32.224121 
	C58.717396,32.472366 60.375343,34.260727 60.956257,36.534103 
	C63.533382,46.619629 67.610779,56.289577 69.281784,67.012680 
	C68.571785,72.026932 64.830154,74.680649 62.094894,78.460999 
	C60.665028,80.299911 59.253143,81.508522 56.824829,81.735214 
	C53.883846,80.916023 52.965237,78.789909 52.201447,76.563568 
	C48.874695,66.866554 46.857677,56.763176 43.167053,47.185287 
	C42.034290,44.245541 44.187977,42.157036 44.752701,39.270370 
	C44.943024,38.911369 44.967106,38.980625 44.931107,38.973679 
	C45.187004,38.785969 45.442249,38.563210 45.811901,38.091904 
z"/>
<path fill="#7787FF" opacity="1.000000" stroke="none" 
	d="
M44.630821,39.060966 
	C43.073601,47.409225 48.295467,54.402679 50.050400,62.118813 
	C51.490822,68.452087 52.681122,75.044449 56.747662,80.832901 
	C58.753841,84.967873 54.986935,86.685326 53.375664,89.673248 
	C51.111679,92.561691 49.990837,96.092346 45.687836,96.688843 
	C42.793350,95.730988 42.008213,93.490326 41.228386,91.302391 
	C37.721031,81.461952 34.952229,71.392952 32.013969,61.376152 
	C31.419508,59.349567 31.594650,57.451797 32.756901,55.242916 
	C34.183933,50.224518 38.169796,47.493507 40.760494,43.786243 
	C41.863499,42.207848 43.863079,41.310627 44.630821,39.060966 
z"/>
<path fill="#6398FF" opacity="1.000000" stroke="none" 
	d="
M18.409821,151.095306 
	C14.751539,144.480652 15.878286,137.103104 14.289672,130.171112 
	C12.830094,123.802170 9.814853,118.103455 8.257140,111.850197 
	C7.672095,109.501602 5.249303,108.983650 2.559238,109.034134 
	C4.376982,101.130379 8.063405,93.813545 11.571321,86.129211 
	C15.602634,84.442497 16.449471,87.467697 17.626974,89.705833 
	C19.760023,93.760216 19.747250,98.363701 20.639845,102.728218 
	C22.275761,110.727348 26.019245,118.019630 28.380035,126.176666 
	C29.731434,129.921219 27.480490,132.590195 26.465816,135.920502 
	C24.584192,139.696121 23.429850,143.347458 21.972378,146.874756 
	C21.281059,148.547852 20.658243,150.324356 18.409821,151.095306 
z"/>
<path fill="#6F8DFF" opacity="1.000000" stroke="none" 
	d="
M32.641998,55.024014 
	C32.704521,60.992935 35.653835,66.379913 37.214394,72.015167 
	C39.431732,80.022102 41.281654,88.274742 45.754204,95.831665 
	C46.406330,96.373589 46.637436,96.794052 46.735176,97.649940 
	C45.140594,102.061157 42.188709,105.319008 40.061646,109.490173 
	C38.750401,110.871437 38.009422,112.362709 35.964966,112.846664 
	C32.720234,112.611435 31.777731,110.414627 31.142160,108.166504 
	C27.724531,96.077820 25.068829,83.785461 21.311882,71.375809 
	C24.073929,65.147926 28.229519,60.175495 32.641998,55.024014 
z"/>
<path fill="#6891FF" opacity="1.000000" stroke="none" 
	d="
M21.022961,71.318764 
	C25.551476,74.119919 25.497269,79.333916 26.840000,83.737968 
	C29.245195,91.626839 30.971542,99.723701 32.940231,107.743790 
	C33.339794,109.371529 33.565754,111.038673 35.689209,111.920906 
	C37.793713,115.656372 34.644257,117.986580 33.468208,121.221939 
	C31.970367,123.597206 31.369032,126.224434 28.366871,127.103607 
	C26.710028,126.819824 25.790348,126.031509 25.531651,124.838158 
	C23.477951,115.364540 18.328064,106.817398 17.714397,96.828178 
	C17.482269,93.049629 16.877037,88.429878 12.252275,86.026390 
	C14.460180,80.918205 16.738674,75.694397 21.022961,71.318764 
z"/>
<path fill="#887EFF" opacity="1.000000" stroke="none" 
	d="
M68.350754,68.165573 
	C66.008774,57.773693 61.632496,48.184143 59.698009,37.905018 
	C59.232983,35.434059 57.834476,33.223263 54.367470,33.010235 
	C54.296741,31.849722 54.631786,30.727686 54.964619,29.249138 
	C57.548893,25.421059 60.948692,22.821833 64.633667,20.038761 
	C69.630234,20.594160 71.475548,23.987837 72.622787,27.996706 
	C75.077759,36.575253 77.215248,45.252689 80.750443,53.892441 
	C80.862419,58.283070 77.362915,60.116699 75.252274,63.246399 
	C73.182053,65.480820 71.762329,67.995575 68.350754,68.165573 
z"/>
<path fill="#907AFF" opacity="1.000000" stroke="none" 
	d="
M80.329697,55.144356 
	C75.385132,48.137245 74.218674,40.068031 72.004250,32.376228 
	C70.701073,27.849689 69.936386,23.053202 65.045502,20.242256 
	C67.646713,16.330521 71.803703,14.668009 75.545700,11.979419 
	C79.227348,11.292128 81.013062,13.136845 81.678902,15.990445 
	C83.941185,25.686007 86.973053,35.142208 90.207672,44.949776 
	C90.059288,47.312656 89.015427,48.805115 87.410576,50.414055 
	C85.165527,52.479328 83.717216,55.021698 80.329697,55.144356 
z"/>
<path fill="#9677FF" opacity="1.000000" stroke="none" 
	d="
M89.329308,46.128933 
	C85.094055,36.117622 81.654434,26.133101 79.913239,15.644357 
	C79.586372,13.675306 78.017273,13.056967 76.233536,12.108253 
	C79.624481,8.935930 84.180733,7.407297 88.625305,5.103863 
	C89.190964,12.536558 92.236450,19.209465 94.131683,26.153877 
	C95.080414,29.630150 96.506775,32.976067 97.867828,36.722664 
	C97.514763,42.205090 93.981163,44.604095 89.329308,46.128933 
z"/>
<path fill="#7787FF" opacity="1.000000" stroke="none" 
	d="
M45.707039,37.975883 
	C45.757523,38.159790 45.552082,38.434216 45.120872,38.837692 
	C45.080444,38.666622 45.265781,38.366512 45.707039,37.975883 
z"/>
<path fill="#EA7FFF" opacity="1.000000" stroke="none" 
	d="
M278.982666,137.652710 
	C282.383942,149.029541 286.439850,159.854660 288.611908,171.246262 
	C289.250671,174.596191 287.972290,178.853653 292.715515,180.916489 
	C293.019012,189.414261 293.000275,197.743805 292.906311,206.536621 
	C290.743317,208.550293 289.319153,207.368362 288.458801,205.621933 
	C284.109100,196.792526 279.230652,188.215271 275.603394,178.628647 
	C273.754547,172.184525 271.456451,166.278137 268.988434,160.499557 
	C263.490051,147.625702 258.982391,134.361008 253.444977,121.524658 
	C248.168411,109.292969 243.706680,96.752792 238.609558,84.459160 
	C237.498795,81.780121 235.749435,79.004044 238.138077,75.740585 
	C240.613434,75.028145 241.942184,76.157715 243.234528,78.108078 
	C251.907791,87.282265 258.113281,97.768097 264.946930,108.247162 
	C269.739471,116.355682 274.343079,124.167435 277.809326,132.575027 
	C278.433197,134.088303 279.308319,135.539703 278.982666,137.652710 
z"/>
<path fill="#D08FFF" opacity="1.000000" stroke="none" 
	d="
M247.375534,266.897949 
	C245.136810,262.823792 243.654419,258.581177 241.328293,254.866959 
	C236.212051,246.697739 234.787659,237.189087 231.211838,228.463272 
	C226.020172,215.794403 221.630417,202.794785 216.986465,189.904587 
	C215.036133,184.491058 213.310333,178.996643 211.239441,173.261749 
	C209.251068,170.035568 213.240158,168.928879 213.326538,166.220917 
	C213.785446,165.850327 214.000580,165.748917 214.566101,165.677216 
	C215.786819,167.505844 217.310913,167.114349 219.146042,166.931931 
	C221.363388,167.686646 222.427887,169.148056 223.129471,170.891739 
	C230.197891,188.459198 237.280731,206.020828 244.478806,223.535614 
	C248.584549,233.525940 253.576645,243.122238 257.667938,253.121597 
	C258.775665,255.828964 259.474335,258.481079 258.121155,261.667725 
	C255.233383,264.908020 250.774567,264.432098 247.375534,266.897949 
z"/>
<path fill="#D58BFF" opacity="1.000000" stroke="none" 
	d="
M258.467377,262.015686 
	C257.289246,261.836304 255.945160,261.273529 256.372833,260.683899 
	C258.839844,257.282257 256.259003,254.694778 255.103439,252.013504 
	C249.460373,238.919968 243.513138,225.956116 237.973999,212.819672 
	C234.042786,203.496536 231.016449,193.773529 226.760513,184.612625 
	C224.262711,179.236084 222.924850,173.356979 219.319000,168.167389 
	C218.433701,167.363586 218.093597,166.652893 218.144791,165.783356 
	C218.217377,164.550629 218.879974,163.080765 219.766068,162.951767 
	C224.039536,162.329803 222.547348,155.738052 227.722748,155.922943 
	C231.133102,156.878494 232.326340,159.435684 233.641724,161.956558 
	C239.765182,173.691772 244.338760,186.094635 249.428177,198.689148 
	C250.225876,202.119919 250.930405,205.143448 251.256897,208.286392 
	C251.612991,211.714050 252.505875,214.997940 254.562790,218.012543 
	C257.496002,222.311478 257.233704,227.585083 257.446289,232.442917 
	C257.832428,241.268051 261.089447,249.168152 264.057617,257.631500 
	C263.660980,261.111328 260.575989,260.656982 258.467377,262.015686 
z"/>
<path fill="#DF88FF" opacity="1.000000" stroke="none" 
	d="
M288.582825,227.743866 
	C288.793640,228.602905 288.753876,229.204575 288.422546,229.922546 
	C287.617920,230.398865 287.489075,230.907837 287.699524,231.742111 
	C285.993683,238.809769 281.668640,243.991592 276.431122,248.916351 
	C273.737427,249.730316 272.472015,248.611099 272.548431,246.367172 
	C272.742310,240.676163 269.861053,236.270538 266.916962,231.833328 
	C264.346619,227.959457 262.079376,223.923782 260.749817,219.026306 
	C260.710114,216.973724 260.671753,215.108063 259.694946,213.864349 
	C254.359940,207.071625 255.001419,198.608582 253.150925,190.873276 
	C252.333801,187.457626 249.364716,184.419647 251.179901,180.132385 
	C252.249298,178.615402 253.464401,178.040100 255.248917,177.736664 
	C258.642853,177.857605 259.980286,180.030319 260.881531,182.378830 
	C264.086273,190.730225 269.965027,197.804459 272.311981,206.575638 
	C272.762695,208.260162 273.668518,210.005798 275.958801,210.846283 
	C278.417999,212.556931 279.198792,214.954376 280.214752,217.203293 
	C282.067383,221.304199 284.249054,225.146042 288.582825,227.743866 
z"/>
<path fill="#E685FF" opacity="1.000000" stroke="none" 
	d="
M288.905884,227.638016 
	C285.495758,228.468399 283.595947,227.056808 281.842102,224.076172 
	C279.668884,220.382919 278.196289,216.426224 276.151367,212.320892 
	C275.567627,211.498352 274.902008,211.085800 274.752808,210.470261 
	C271.756775,198.110352 265.863464,186.627106 263.726349,174.010803 
	C263.558136,173.017929 263.616852,172.028748 264.088348,170.696625 
	C265.898468,168.496872 267.559570,169.364899 269.002106,170.488220 
	C271.687042,172.579086 274.640015,174.410492 276.737427,177.712463 
	C280.739410,184.833862 282.640289,192.646820 287.606110,198.789261 
	C289.646881,201.313568 288.035095,205.691360 292.469116,206.975494 
	C292.274658,213.896500 292.659973,220.972061 288.905884,227.638016 
z"/>
<path fill="#DA8DFF" opacity="1.000000" stroke="none" 
	d="
M261.794220,218.680725 
	C264.535034,225.852432 269.579407,231.318680 272.487061,237.955734 
	C273.767822,240.879196 275.940796,243.735489 273.896179,247.246582 
	C273.811523,247.391998 274.971832,248.262375 275.832031,248.922913 
	C272.943237,252.759354 269.984772,256.732025 264.482605,258.015472 
	C262.404022,257.863342 261.519012,256.895294 260.922516,255.312912 
	C257.507385,246.253174 255.258453,236.965744 254.984787,227.241257 
	C254.876160,223.381561 254.192078,219.820465 251.398254,216.683105 
	C248.989014,213.977615 249.764435,210.063431 249.040359,206.706970 
	C248.552979,204.447784 248.361115,202.124832 248.018524,199.415512 
	C252.393707,197.405075 253.653168,201.042847 254.716782,203.667099 
	C256.196228,207.317307 258.843689,210.494110 259.228027,214.615540 
	C259.371582,216.154999 260.876617,217.057846 261.794220,218.680725 
z"/>
<path fill="#E685FF" opacity="1.000000" stroke="none" 
	d="
M287.906891,231.666382 
	C287.308594,231.460327 287.070709,230.912155 287.920715,230.169525 
	C288.080902,230.474274 288.030792,230.909668 287.906891,231.666382 
z"/>
<path fill="#62A8FF" opacity="1.000000" stroke="none" 
	d="
M16.490086,237.138611 
	C15.520132,236.002396 14.714857,235.076736 14.954084,233.403961 
	C15.610088,231.047775 15.348594,229.280563 14.128164,227.454849 
	C11.909493,224.135803 10.865980,220.387863 10.509485,216.392334 
	C9.435272,211.623444 8.623944,206.844193 8.952446,201.516083 
	C11.997187,198.811615 13.593471,201.229294 14.662098,203.318115 
	C17.941132,209.727539 23.657936,213.583328 29.389544,218.014175 
	C31.563807,219.886307 32.808846,221.887985 33.195862,224.783615 
	C34.095402,229.988556 34.900826,234.807861 35.958046,239.573761 
	C36.570442,242.334427 37.242153,245.042068 36.135475,248.195679 
	C33.942669,250.983231 31.844606,249.921997 29.837801,248.583069 
	C26.927546,246.641373 24.493858,244.137299 22.208462,241.525208 
	C20.657345,239.752350 18.924019,238.313156 16.490086,237.138611 
z"/>
<path fill="#6AAAFF" opacity="1.000000" stroke="none" 
	d="
M29.321262,218.757294 
	C22.560087,216.033432 17.422852,211.623352 13.958608,205.379150 
	C12.927664,203.520889 12.304092,201.290268 9.284924,201.062866 
	C8.917117,201.062958 8.970010,201.037247 8.956280,201.063110 
	C8.202750,200.025879 8.637305,198.797897 8.316038,197.333405 
	C7.097744,191.928864 9.337328,187.028427 8.973291,181.547974 
	C9.744092,180.243271 10.631125,180.897461 11.759966,180.977966 
	C13.810305,180.282501 15.039327,181.362671 15.862597,182.552368 
	C20.315731,188.987549 25.349968,194.959503 30.277195,201.019287 
	C30.695444,201.533691 30.810400,202.230484 30.972923,203.274033 
	C30.195967,206.890015 30.574818,210.132050 30.810455,213.382812 
	C30.940813,215.181183 30.817167,216.984375 29.321262,218.757294 
z"/>
<path fill="#5B9FFF" opacity="1.000000" stroke="none" 
	d="
M16.184765,237.343185 
	C18.948240,236.052704 20.826719,237.375977 22.663071,239.334641 
	C26.121315,243.023209 29.124447,247.307999 34.636391,248.990112 
	C36.050545,249.151260 36.827991,249.787643 37.512501,250.513412 
	C41.397892,254.632889 45.344501,258.620941 51.054768,260.245850 
	C52.484543,260.652710 53.736534,261.608582 54.015343,263.650055 
	C53.989681,263.999481 53.983871,264.490448 53.983093,264.735962 
	C53.650043,265.535522 53.101444,265.608276 52.270805,265.739746 
	C46.251225,263.810608 40.945087,260.841766 35.539162,258.049683 
	C32.211052,256.330811 29.769636,253.550232 27.212955,251.138412 
	C23.036491,247.198532 19.829241,242.231216 16.184765,237.343185 
z"/>
<path fill="#5B9FFF" opacity="1.000000" stroke="none" 
	d="
M10.089314,216.748962 
	C13.855241,215.433609 11.023702,220.008026 13.369874,220.176559 
	C12.553566,223.232330 14.480418,225.201675 16.061329,227.406250 
	C17.314743,229.154160 17.476086,231.095383 15.224060,232.859192 
	C12.625031,227.929550 9.784243,222.980667 10.089314,216.748962 
z"/>
<path fill="#62A8FF" opacity="1.000000" stroke="none" 
	d="
M8.099411,197.381775 
	C9.057446,197.983353 9.000472,199.180038 8.956785,200.729584 
	C7.393029,200.318176 8.232919,198.891922 8.099411,197.381775 
z"/>
<path fill="#63A3FF" opacity="1.000000" stroke="none" 
	d="
M52.280701,265.961792 
	C52.483330,265.579407 52.956596,265.312958 53.706093,265.014008 
	C53.989166,265.392120 53.996014,265.802704 54.005432,266.521118 
	C53.522449,266.578522 53.036896,266.328094 52.280701,265.961792 
z"/>
<path fill="#B98FFF" opacity="1.000000" stroke="none" 
	d="
M173.214157,194.750687 
	C169.203537,195.733734 165.657883,197.748352 161.298859,197.098541 
	C160.576187,195.422501 161.695236,195.006393 163.070526,194.492767 
	C163.819000,194.495239 164.174393,194.684860 164.542969,194.891541 
	C164.884308,195.082962 165.078308,195.014420 165.012741,194.886047 
	C164.959824,194.918167 164.858612,194.822113 164.747711,194.276840 
	C167.578156,190.914734 170.943710,188.760635 175.188553,187.464035 
	C175.921036,187.185516 176.146149,188.593201 176.727127,187.269775 
	C180.827957,182.652649 185.814880,180.134476 191.715408,178.948944 
	C193.440445,182.928055 190.512421,184.484970 188.167282,186.710297 
	C182.379807,188.023773 177.535858,190.549515 173.214157,194.750687 
z"/>
<path fill="#000000" opacity="1.000000" stroke="none" 
	d="
M192.328751,179.011963 
	C187.127823,181.912659 182.071213,184.356064 177.325104,188.007034 
	C176.828186,188.236160 176.663727,188.318527 176.252945,188.276627 
	C172.053192,189.574783 169.394028,193.268570 165.060959,194.621399 
	C164.792114,195.123154 164.680084,195.303406 164.290176,195.328308 
	C163.082031,195.571503 162.151764,195.970032 161.101776,196.660156 
	C159.728714,197.734009 158.475388,198.516281 157.090057,199.597412 
	C153.242844,199.723495 151.430588,203.354492 148.106110,204.570526 
	C146.522293,205.551926 145.083298,206.214981 143.321899,207.026672 
	C139.399048,212.904678 132.890030,214.510483 127.344742,218.115082 
	C123.101410,219.382141 119.166306,220.157776 114.711136,219.493042 
	C113.383896,219.257126 112.459099,218.924789 111.120361,218.791016 
	C110.019051,218.694885 109.305252,218.517273 108.243256,218.204803 
	C102.680984,215.281494 98.299477,211.450439 94.147774,206.766327 
	C92.506195,203.765182 90.526665,201.360626 89.619934,197.958481 
	C89.122696,196.216965 88.994118,194.831680 88.903854,192.996582 
	C88.060265,183.294342 88.788445,174.004425 88.376511,164.259384 
	C87.422607,154.493622 87.574654,145.146393 88.054527,135.876434 
	C88.717506,123.069115 88.222504,110.278366 88.504959,97.032829 
	C88.513229,96.288605 88.518677,95.996284 88.534409,95.275192 
	C88.817245,87.266609 92.198227,81.093636 97.503723,75.389946 
	C101.985199,71.275093 106.812569,68.506813 112.575974,66.595436 
	C118.709633,64.133507 123.766090,66.176498 129.028915,69.189758 
	C136.923599,72.657295 143.686005,77.381126 151.169693,81.551163 
	C152.993408,83.405540 155.301315,83.562721 157.411407,84.878677 
	C162.953964,88.841911 168.729782,91.693665 174.357040,94.790215 
	C176.412292,95.921181 178.411865,97.026085 179.549118,99.420074 
	C179.617996,99.776024 179.826218,99.793129 180.081558,99.500420 
	C180.522125,99.291519 180.915588,99.392410 180.699844,99.482895 
	C179.409958,101.644821 182.076614,100.598640 182.690964,101.830673 
	C184.469162,101.661064 185.788544,101.821404 186.782593,103.561661 
	C190.419235,107.341492 195.096237,108.708862 199.595001,111.062973 
	C202.213013,110.985924 203.967285,112.074722 205.786682,113.720581 
	C206.961365,117.054405 209.980682,117.730255 212.299042,118.842308 
	C214.807373,120.045479 216.646530,121.658951 218.566620,123.906219 
	C220.895798,124.235481 222.791122,124.699394 223.908417,126.578270 
	C227.266464,132.225281 230.603745,137.889099 229.583649,145.285553 
	C227.655167,154.299973 223.134216,161.120575 215.354568,165.934052 
	C214.804367,165.918274 214.637039,165.957611 214.226868,166.083588 
	C211.681213,170.142197 208.370499,172.586319 203.337219,172.925903 
	C201.176346,172.785950 200.390717,174.295273 199.125336,175.545166 
	C196.788818,176.647781 194.295380,176.852768 192.328751,179.011963 
z"/>
<path fill="#DA7DFF" opacity="1.000000" stroke="none" 
	d="
M202.991226,173.206085 
	C206.297974,170.499374 210.411301,169.339783 213.630402,166.208649 
	C214.627274,168.947983 212.580460,170.488358 211.076813,172.650024 
	C208.713287,173.699051 206.413498,174.365112 204.151550,175.141449 
	C201.760971,175.961899 203.640320,173.872391 202.991226,173.206085 
z"/>
<path fill="#C593FF" opacity="1.000000" stroke="none" 
	d="
M198.998657,178.998199 
	C198.997330,178.996414 199.211929,178.651642 199.211929,178.651642 
	C199.211929,178.651642 199.197113,178.909348 199.100296,178.955963 
	C199.003479,179.002563 199.000000,179.000000 198.998657,178.998199 
z"/>
<path fill="#DB86FF" opacity="1.000000" stroke="none" 
	d="
M228.357819,146.276367 
	C229.091003,138.943176 225.270264,133.263397 222.639389,127.272667 
	C222.087509,126.015984 220.798157,124.957085 219.048218,124.369553 
	C221.342041,120.521713 219.371597,117.110039 217.954987,114.211899 
	C213.056900,104.191399 210.223053,93.401512 205.875778,83.163895 
	C201.626953,73.158173 199.171280,62.344639 194.512650,52.486618 
	C190.063263,43.071411 187.545853,33.014172 183.790039,23.234138 
	C187.090897,24.469656 189.825851,26.465105 192.706757,28.840624 
	C200.352295,40.126308 203.027771,53.226101 208.113449,65.305275 
	C215.585266,83.051834 222.015991,101.241753 229.092438,119.169083 
	C236.046967,136.787598 243.711121,154.099930 250.812683,171.649872 
	C251.801041,174.092361 253.140457,176.497711 252.179489,179.655853 
	C250.695038,184.326797 255.010590,186.960663 255.208847,191.090210 
	C255.441986,195.946289 257.352173,200.672256 257.231537,205.704483 
	C257.183777,207.698059 258.835693,209.221420 260.174103,210.730347 
	C262.084717,212.884369 263.473297,215.287338 262.145477,218.674393 
	C258.430267,218.988083 257.351532,216.981857 256.912292,213.651382 
	C256.141510,207.806931 253.435898,202.824051 248.345551,199.055542 
	C243.543411,190.679062 241.207993,181.448074 236.954163,173.055984 
	C234.287704,167.795532 232.539062,162.007629 228.224854,157.261871 
	C225.177811,153.363068 228.402405,150.043350 228.357819,146.276367 
z"/>
<path fill="#D389FF" opacity="1.000000" stroke="none" 
	d="
M206.213165,113.721832 
	C203.646530,114.297440 201.643295,113.800163 200.104736,111.444656 
	C200.874802,107.482239 197.497284,105.896286 196.096497,103.437653 
	C191.023972,94.534500 188.805634,84.530670 184.771347,75.228775 
	C180.883865,66.265320 177.833893,56.938656 174.414658,47.772057 
	C170.276245,36.677433 166.219589,25.551165 161.947433,14.508267 
	C160.637909,11.123322 158.736221,7.967455 157.054993,4.352301 
	C158.805237,3.926528 160.191574,4.493080 161.105209,6.205322 
	C162.801315,9.383975 165.585999,11.589798 168.637726,13.216398 
	C171.964310,14.989496 173.531738,17.777304 173.857239,21.153864 
	C174.105850,23.732924 174.819138,26.085812 175.976837,28.244459 
	C181.556702,38.648685 183.147064,50.696850 188.568924,60.913448 
	C192.952515,69.173576 193.211563,78.903343 199.097672,86.364113 
	C199.672058,87.092171 199.715225,88.231712 200.033905,89.170425 
	C201.609695,93.811844 202.083710,98.788033 205.327515,102.905670 
	C207.712952,105.933708 207.441696,109.757759 206.213165,113.721832 
z"/>
<path fill="#CB8DFF" opacity="1.000000" stroke="none" 
	d="
M179.562775,99.336639 
	C171.999298,95.403809 164.588837,91.048698 157.036316,86.366562 
	C158.129211,83.156525 160.895172,84.460838 163.498215,83.758530 
	C161.727570,76.806244 158.750992,70.355576 156.429871,63.692356 
	C152.189880,51.520493 146.791092,39.780445 142.874771,27.493797 
	C141.915466,24.484167 141.040787,21.497004 139.531082,18.692417 
	C138.365112,16.526352 137.115173,14.293279 137.825623,11.316402 
	C140.845154,9.136860 144.060318,8.142482 147.617920,7.043853 
	C151.634018,14.806155 155.030365,22.712225 157.863358,30.878046 
	C161.264832,40.682480 164.702881,50.521248 168.569138,60.103500 
	C171.390457,67.095879 173.311600,74.472191 177.085434,81.240280 
	C179.907196,86.300865 181.757996,92.598625 179.562775,99.336639 
z"/>
<path fill="#CB8DFF" opacity="1.000000" stroke="none" 
	d="
M187.040649,103.534096 
	C185.873978,103.255798 184.746689,102.682053 183.317810,101.965561 
	C184.130676,100.962975 185.229340,99.782265 186.778748,100.649422 
	C187.857056,101.252922 187.202332,102.341019 187.040649,103.534096 
z"/>
<path fill="#CB8DFF" opacity="1.000000" stroke="none" 
	d="
M180.279388,99.544739 
	C180.090652,99.472458 180.151367,99.344810 180.140015,99.267700 
	C180.363159,99.296165 180.597626,99.401726 180.832108,99.507294 
	C180.710785,99.543869 180.589447,99.580452 180.279388,99.544739 
z"/>
<path fill="#A7A1FF" opacity="1.000000" stroke="none" 
	d="
M126.665260,217.261841 
	C132.039719,213.713867 137.172028,210.467407 142.651917,207.198120 
	C142.801529,208.748764 143.692749,210.879181 141.806030,211.688492 
	C136.875336,213.803421 138.286255,216.873398 139.628952,220.658218 
	C143.893311,232.678741 147.873123,244.804550 151.696548,256.973358 
	C152.440048,259.339691 153.478745,261.220276 155.270370,262.742950 
	C157.331192,264.494446 158.362167,266.596588 157.959961,269.725098 
	C155.578033,269.744324 153.208450,269.357910 150.435455,268.900024 
	C150.438187,266.200439 149.052551,264.996948 146.685150,264.397339 
	C144.018707,263.722015 141.392502,262.887878 138.375122,262.050354 
	C133.916321,253.856903 131.472198,245.104172 128.303131,236.632339 
	C126.918335,232.930389 126.128044,229.020523 124.516693,225.374451 
	C123.184181,222.359299 123.310860,219.561310 126.665260,217.261841 
z"/>
<path fill="#E183FF" opacity="1.000000" stroke="none" 
	d="
M265.228943,169.693054 
	C267.135315,179.254135 268.453064,188.764633 273.128815,197.245926 
	C275.537079,201.614227 275.150970,206.491196 275.999390,211.571838 
	C271.916718,212.023361 270.987671,209.082214 269.939087,205.925735 
	C266.774200,196.398788 261.494781,187.890808 256.340576,179.081650 
	C254.927887,177.943253 253.961014,176.843628 253.511932,175.334976 
	C248.007309,156.842941 240.331879,139.139236 233.750732,121.037743 
	C228.718109,107.195488 223.002594,93.576347 218.165421,79.707664 
	C214.892944,70.325073 210.013580,61.551659 207.769394,51.838467 
	C207.072922,48.823959 206.056885,45.695293 207.709503,42.275612 
	C211.649139,44.707062 214.620010,48.107582 217.836548,51.711159 
	C220.525162,58.113689 222.387070,64.520119 225.989792,70.156387 
	C226.994308,71.727905 227.487076,73.462410 227.933273,75.252502 
	C229.426376,81.242332 231.372955,87.069328 234.518723,92.430206 
	C236.556534,95.902977 237.890366,99.685478 239.053162,103.496231 
	C242.502838,114.801636 247.815369,125.360550 252.275986,136.247696 
	C255.360962,143.777237 259.066559,151.084488 261.334045,158.914185 
	C262.394928,162.577393 265.793213,165.244064 265.228943,169.693054 
z"/>
<path fill="#E581FF" opacity="1.000000" stroke="none" 
	d="
M265.342896,170.054138 
	C257.308777,153.948151 251.410263,137.099625 243.986465,120.997475 
	C239.066620,110.326363 236.915573,98.611710 230.510910,88.525330 
	C227.961319,84.510124 226.297470,79.522606 225.996811,74.455254 
	C225.900421,72.830650 225.041733,71.725212 224.075089,70.541481 
	C220.352249,65.982475 219.982422,59.894485 217.116714,54.918537 
	C216.808167,54.382786 217.360260,53.351387 217.754883,52.276035 
	C218.163330,52.002853 218.330048,52.003540 218.746796,52.006477 
	C220.423630,54.264847 222.421585,55.975765 224.704849,57.846855 
	C231.333771,62.558018 237.006500,67.666847 239.244446,75.716751 
	C237.206543,80.113312 240.314011,83.187851 241.475403,86.574783 
	C243.650146,92.916954 246.417908,99.055527 248.931915,105.281647 
	C256.346405,123.644127 263.822479,141.982178 271.130157,160.387100 
	C273.320862,165.904602 275.037750,171.610214 276.985260,177.614471 
	C272.386871,176.574829 269.576691,172.567093 265.342896,170.054138 
z"/>
<path fill="#DE84FF" opacity="1.000000" stroke="none" 
	d="
M207.832001,41.715469 
	C209.092484,50.626621 211.235519,58.746143 215.905899,66.380943 
	C219.031052,71.489716 217.988525,78.527908 221.774933,83.650169 
	C226.172928,89.599777 225.959412,97.096642 228.898666,103.588600 
	C236.409607,120.177948 241.776413,137.612961 248.213272,154.626312 
	C251.153793,162.398407 254.862442,169.841385 255.983215,178.596130 
	C254.894531,179.301346 253.789078,179.603287 252.341797,179.952393 
	C248.643509,170.294739 244.539520,160.843292 240.564316,151.425522 
	C236.214767,141.120834 231.683640,130.885300 227.707718,120.416634 
	C223.029083,108.097710 217.749161,96.032578 213.353516,83.573387 
	C209.847214,73.634956 205.761703,63.795284 201.634521,54.027962 
	C198.301743,46.140690 195.847977,37.881992 193.001755,29.395813 
	C195.465286,30.173914 196.583862,33.085461 199.661560,33.951473 
	C201.903397,37.148983 204.973206,39.092461 207.832001,41.715469 
z"/>
<path fill="#8DAEFF" opacity="1.000000" stroke="none" 
	d="
M27.952412,127.359558 
	C29.164995,125.143013 30.322306,123.284454 31.726341,121.207199 
	C35.466236,119.650764 36.474098,122.402908 37.246494,124.612244 
	C43.337860,142.035736 50.658066,158.985062 57.081913,176.284882 
	C62.512409,190.909546 67.971191,205.526215 73.132462,220.246689 
	C74.742188,224.837784 77.323906,229.303299 76.265244,234.783066 
	C72.827171,234.563965 70.510292,232.312393 67.343521,231.063202 
	C62.583916,230.713104 59.338913,228.598450 57.127041,224.360779 
	C54.776344,214.589127 50.458767,205.928894 47.285831,196.856400 
	C40.817974,178.362732 33.693264,160.118942 26.079382,142.067764 
	C25.344751,140.326096 25.395754,138.497787 24.982906,136.343094 
	C24.909416,132.855850 27.158680,130.558899 27.952412,127.359558 
z"/>
<path fill="#91ABFF" opacity="1.000000" stroke="none" 
	d="
M76.144089,235.327667 
	C73.411476,227.243134 70.773361,219.449844 68.294388,211.606262 
	C65.383133,202.394897 62.307407,193.073944 58.421425,184.413376 
	C53.131268,172.623352 49.812725,160.155701 44.348740,148.440552 
	C41.074604,141.420578 37.631565,134.174667 36.027096,126.406456 
	C35.561371,124.151588 34.611073,122.379074 32.319252,121.072220 
	C33.283791,118.226242 34.594521,115.463997 35.973293,112.354248 
	C36.836369,111.087830 37.631393,110.168900 38.688419,109.087257 
	C42.227577,109.734512 43.045536,112.693695 44.083530,115.216248 
	C48.640404,126.290459 53.148586,137.386612 57.565884,148.516907 
	C68.116989,175.102570 77.997536,201.941544 87.370918,228.963791 
	C88.752159,232.945740 90.911087,237.019989 88.310547,241.694580 
	C85.545555,240.729828 83.086586,239.513840 80.313354,238.164261 
	C78.769051,237.219345 77.539017,236.408005 76.144089,235.327667 
z"/>
<path fill="#6C9EFF" opacity="1.000000" stroke="none" 
	d="
M57.807259,223.660400 
	C59.917252,227.393936 63.967438,227.976089 66.781616,230.751801 
	C64.444466,235.341980 68.411423,238.840973 68.582184,242.877731 
	C68.712288,245.953430 70.292862,248.920776 69.999138,252.570038 
	C65.002373,251.686035 61.333141,248.449081 58.373405,244.465759 
	C56.832939,242.392548 55.215031,240.757034 52.353222,240.051117 
	C47.449776,233.728729 44.902096,226.868378 46.023117,218.629211 
	C48.811886,215.996796 50.778152,218.076996 52.760323,219.307556 
	C54.546452,220.416412 56.456177,221.439362 57.807259,223.660400 
z"/>
<path fill="#ED5BFF" opacity="1.000000" stroke="none" 
	d="
M279.258667,137.829498 
	C273.998779,128.582748 269.049866,119.148560 264.039886,109.366905 
	C263.394287,103.547028 260.623413,98.163811 263.654297,92.278885 
	C268.771698,96.295158 273.542175,100.590614 278.655701,104.942429 
	C279.148071,109.136414 281.656006,112.550766 282.758911,116.735123 
	C283.000854,118.714622 283.000519,120.429268 283.000458,122.572525 
	C281.285065,125.374954 280.812683,127.910004 281.345032,130.855255 
	C281.776581,133.242676 281.470459,135.724609 279.258667,137.829498 
z"/>
<path fill="#63A3FF" opacity="1.000000" stroke="none" 
	d="
M54.348995,263.888916 
	C52.147640,261.683746 49.200081,261.148590 46.761856,260.088257 
	C41.607803,257.846802 38.207611,254.021133 35.052799,249.342041 
	C35.093185,241.749985 33.078434,234.850037 31.513187,227.872025 
	C31.345806,227.125839 31.513885,226.304398 31.762848,225.259247 
	C32.991795,224.379395 34.028763,224.674683 34.722427,225.319763 
	C39.592571,229.848785 44.923084,233.913605 48.987251,239.638763 
	C51.068790,246.013901 54.053017,251.700409 55.465965,257.946838 
	C55.920727,259.957306 56.899651,262.088928 54.348995,263.888916 
z"/>
<path fill="#6AA4FF" opacity="1.000000" stroke="none" 
	d="
M49.374512,240.000000 
	C42.698524,236.033401 38.106514,230.155640 32.290447,225.161011 
	C31.814465,222.841843 29.962904,221.521988 29.142979,219.304733 
	C30.158978,213.929626 26.427650,208.642044 29.842014,203.332275 
	C34.668842,202.295334 35.736931,207.284729 39.363392,208.898254 
	C42.214897,211.824615 46.192425,213.246902 47.153870,217.649048 
	C46.590004,223.692749 48.609829,228.883179 50.571697,234.062012 
	C51.211155,235.750015 52.126362,237.321976 51.998638,239.603806 
	C51.250946,239.999603 50.500370,239.999802 49.374512,240.000000 
z"/>
<path fill="#87B1FF" opacity="1.000000" stroke="none" 
	d="
M47.348610,218.038330 
	C44.440788,215.522919 41.875961,213.068451 39.145599,210.325012 
	C34.212444,204.386414 32.952759,197.139725 30.536552,190.513626 
	C26.387396,179.135193 20.736671,168.348160 17.227272,156.331482 
	C17.360907,154.588501 17.677740,153.178177 18.010746,151.405869 
	C20.159861,146.177628 22.292801,141.311356 24.674809,136.206818 
	C28.069639,139.510315 28.910328,144.172455 30.805965,148.308731 
	C35.258247,158.023575 38.287636,168.309662 42.788910,178.047867 
	C45.580070,184.086349 46.832333,190.826965 49.424900,197.057327 
	C52.468258,204.371002 55.147781,211.837860 57.890587,219.273148 
	C58.379089,220.597382 59.387299,221.975739 58.186954,223.785797 
	C53.807037,223.300247 51.270435,219.800278 47.348610,218.038330 
z"/>
<path fill="#81B3FF" opacity="1.000000" stroke="none" 
	d="
M16.919315,156.252899 
	C19.499872,156.263367 20.242922,158.152557 20.811642,160.102921 
	C24.012135,171.078705 29.384809,181.203537 33.234634,191.920105 
	C35.290997,197.644287 37.079350,203.464767 38.984360,209.638916 
	C35.127468,209.113907 33.611309,205.270416 30.290710,203.158600 
	C23.475643,196.362411 18.360743,188.596222 12.328138,181.168121 
	C12.387665,173.434998 14.714092,166.217789 15.978546,158.405640 
	C16.258348,157.502823 16.526451,157.004898 16.919315,156.252899 
z"/>
<path fill="#95A9FF" opacity="1.000000" stroke="none" 
	d="
M88.318062,242.106750 
	C88.461273,234.876907 85.263611,228.683395 83.062897,222.311234 
	C78.156281,208.104111 73.189720,193.903976 67.702812,179.914673 
	C61.717468,164.654617 56.326134,149.159958 49.640293,134.169189 
	C46.017281,126.045792 43.563023,117.419815 39.107025,109.249130 
	C40.138954,104.803192 42.942924,101.660683 45.672890,98.119720 
	C48.873985,98.582809 49.577885,101.136368 50.544754,103.384666 
	C57.236031,118.944191 63.199677,134.806686 69.188446,150.631805 
	C74.528252,164.742065 80.185150,178.747192 85.149834,192.992554 
	C90.593651,208.612732 95.753380,224.330856 101.609718,239.807037 
	C102.556183,242.308197 103.286324,244.907425 101.309769,247.709045 
	C100.837349,247.966583 100.670174,247.971741 100.252197,247.983490 
	C96.211479,246.082611 92.421539,244.175140 88.318062,242.106750 
z"/>
<path fill="#C092FF" opacity="1.000000" stroke="none" 
	d="
M151.273438,83.142143 
	C143.818695,79.075592 136.742630,75.108833 129.333862,70.978180 
	C126.604904,61.496624 123.734947,52.336185 119.932907,43.484943 
	C117.577019,38.000366 115.135185,32.547058 113.859283,26.311518 
	C114.913376,23.843004 117.253197,23.219410 118.845695,21.315828 
	C122.242706,20.243551 124.395973,17.544575 127.688965,16.172613 
	C130.093002,17.406124 130.848938,19.684795 131.658539,21.816729 
	C137.471664,37.124420 143.769821,52.250805 148.972229,67.786926 
	C150.082748,71.103355 151.850525,74.128181 153.018906,77.405594 
	C153.796799,79.587654 154.840607,81.940903 151.273438,83.142143 
z"/>
<path fill="#C690FF" opacity="1.000000" stroke="none" 
	d="
M151.038940,83.369965 
	C152.458496,82.223740 152.908096,81.312119 152.040619,79.457275 
	C147.776657,70.340080 144.899826,60.666801 141.247101,51.344090 
	C137.049622,40.631031 133.444260,29.623978 128.352097,19.249315 
	C128.007843,18.547962 128.110214,17.627401 128.002548,16.421642 
	C130.853058,13.933345 133.966217,12.322582 137.641693,11.051369 
	C143.243958,20.969484 145.363373,32.203632 150.250946,42.232971 
	C153.581940,49.068195 155.076096,56.437778 158.227844,63.313168 
	C161.215790,69.831192 163.951355,76.660301 165.460724,83.813011 
	C165.712112,85.004295 166.021667,86.076027 164.836288,86.934074 
	C163.392593,87.979111 162.572403,87.435440 161.671738,86.050690 
	C160.525162,84.287857 158.988129,85.771820 157.256042,85.981316 
	C154.941589,85.378288 152.761246,85.272232 151.038940,83.369965 
z"/>
<path fill="#B997FF" opacity="1.000000" stroke="none" 
	d="
M113.582108,26.003536 
	C118.415909,30.684456 118.936470,37.284870 121.631699,42.889473 
	C124.836304,49.553307 126.727966,56.838539 129.418335,63.765255 
	C130.314835,66.073402 129.250305,67.969696 129.019058,70.433121 
	C124.082809,69.073982 119.556351,65.241798 113.400757,67.899620 
	C110.998657,67.303993 109.271622,66.313812 108.262474,64.467041 
	C104.028809,56.719311 102.111137,48.084389 98.971901,39.915630 
	C98.680405,39.157108 99.023735,38.277504 99.730347,37.234299 
	C101.578392,34.145489 104.418625,32.666904 106.828026,30.270935 
	C109.082329,28.680864 111.167183,27.376360 113.582108,26.003536 
z"/>
<path fill="#B29CFF" opacity="1.000000" stroke="none" 
	d="
M99.641068,36.943008 
	C102.144081,43.210445 104.197716,49.552452 106.546318,55.783276 
	C108.081444,59.855965 109.054466,64.316620 112.911362,67.512383 
	C108.471489,70.350739 103.373703,71.920326 99.355324,75.956772 
	C97.285583,75.764214 95.901321,74.666595 95.071312,73.298317 
	C90.811661,66.276215 86.482178,59.249302 85.917480,50.342243 
	C86.856827,48.816010 87.777252,47.669617 88.845444,46.242889 
	C92.309052,43.620438 94.933167,40.556126 97.854874,37.348007 
	C98.451332,37.033051 98.884109,37.001717 99.641068,36.943008 
z"/>
<path fill="#99A7FF" opacity="1.000000" stroke="none" 
	d="
M101.322876,248.123749 
	C101.646652,243.594940 99.470184,239.962402 98.058998,236.082672 
	C90.786469,216.088562 84.423317,195.777359 76.603111,175.967148 
	C69.165550,157.126282 62.386501,138.026489 55.125893,119.114273 
	C52.457867,112.164680 49.240032,105.426178 46.115509,98.265137 
	C45.979885,97.510941 46.001740,97.082993 46.043247,96.333878 
	C48.715595,94.511658 49.593628,91.545937 51.751343,89.217949 
	C54.778885,89.298889 55.828716,91.526741 56.770905,93.594742 
	C62.270412,105.665634 67.161606,117.985374 71.678268,130.458389 
	C76.135521,142.767334 81.004135,154.919861 85.848518,167.080246 
	C86.216927,168.005035 87.039864,168.663162 87.879196,169.766541 
	C89.521736,175.949051 88.094589,181.858307 88.487213,187.726883 
	C88.605927,189.501266 88.169212,191.424744 90.491653,192.757660 
	C90.865982,194.389969 90.921822,195.781219 90.898308,197.584412 
	C89.255005,201.920425 91.987724,203.694687 94.858925,205.742554 
	C99.238991,209.508194 103.059937,213.422028 107.904648,216.565872 
	C111.609200,226.131592 115.058685,235.425247 117.937813,244.909836 
	C118.873466,247.992096 120.979156,250.963654 119.272987,254.762894 
	C112.795738,253.833710 107.403183,250.586304 101.322876,248.123749 
z"/>
<path fill="#A1A4FF" opacity="1.000000" stroke="none" 
	d="
M119.123138,255.293518 
	C117.056000,248.377899 115.029930,241.750290 112.719872,235.189148 
	C110.730339,229.538330 107.059578,224.248932 108.031387,217.330215 
	C108.763443,216.932571 109.485077,216.980820 110.558937,217.113419 
	C111.739578,217.630829 112.663864,217.427948 113.818207,217.767365 
	C118.174461,218.223358 122.200188,217.927216 126.542107,216.980621 
	C125.071053,220.628113 126.026733,223.727554 127.379921,227.617935 
	C130.482498,236.537720 133.332886,245.546082 136.934738,254.293839 
	C137.837250,256.485748 138.154465,258.776306 138.000961,261.557190 
	C132.599197,260.313782 127.196938,258.649658 121.398468,256.970093 
	C120.423279,256.482544 119.844315,256.010406 119.123138,255.293518 
z"/>
<path fill="#EA64FF" opacity="1.000000" stroke="none" 
	d="
M264.000824,91.571213 
	C263.085663,97.444305 266.376068,102.807869 264.146851,108.646996 
	C258.368835,101.095993 252.763290,93.169365 247.145462,85.251457 
	C245.819046,83.381989 244.451309,81.541840 243.044556,79.346359 
	C243.036697,78.643822 243.210373,78.354034 243.746582,78.062042 
	C247.378082,73.022125 249.513016,67.701439 248.786560,61.263840 
	C253.776031,69.276024 258.551544,77.551758 263.662720,85.913177 
	C263.999084,87.713486 263.999756,89.428108 264.000824,91.571213 
z"/>
<path fill="#E66DFF" opacity="1.000000" stroke="none" 
	d="
M243.986893,77.608765 
	C243.856857,78.293480 243.655533,78.543373 243.192383,78.876343 
	C241.843994,78.102150 240.701447,77.199799 239.284027,76.147858 
	C237.417694,71.876808 233.999649,69.115631 231.258743,65.888596 
	C229.224991,63.494148 227.047821,61.230892 225.154694,58.298332 
	C226.658661,55.697937 226.720001,52.783852 226.395096,50.400337 
	C225.393692,43.054428 227.294922,36.309296 229.748779,29.267258 
	C234.863266,41.213177 236.573746,54.337929 240.920319,66.704445 
	C242.128586,70.142120 242.964722,73.710602 243.986893,77.608765 
z"/>
<path fill="#E685FF" opacity="1.000000" stroke="none" 
	d="
M245.000061,30.270090 
	C245.314316,30.125360 245.570480,30.313242 245.878510,30.798084 
	C245.981125,31.025890 245.488800,31.051979 245.242264,31.056324 
	C244.994705,30.884962 244.993698,30.709255 245.000061,30.270090 
z"/>
<path fill="#E685FF" opacity="1.000000" stroke="none" 
	d="
M246.877014,31.796688 
	C246.688553,31.885052 246.434616,31.693684 246.105591,31.231354 
	C245.981125,31.025890 245.999100,31.002092 246.010849,30.992741 
	C246.314560,31.126987 246.561096,31.326675 246.877014,31.796688 
z"/>
<path fill="#E685FF" opacity="1.000000" stroke="none" 
	d="
M247.004822,31.996529 
	C247.009811,31.992773 247.364273,32.231396 247.364273,32.231396 
	C247.364273,32.231396 247.085526,32.216198 247.038696,32.113560 
	C246.991852,32.010921 246.999832,32.000282 247.004822,31.996529 
z"/>
<path fill="#9DA5FF" opacity="1.000000" stroke="none" 
	d="
M87.290359,169.812668 
	C81.859650,166.565323 81.490021,160.486053 79.198914,155.531784 
	C76.369255,149.412994 74.227257,142.973801 71.839989,136.653442 
	C68.865623,128.778763 66.159279,120.794968 62.939903,113.022865 
	C59.662384,105.110390 57.373207,96.727234 52.170174,89.307220 
	C53.641712,86.568146 55.278744,84.127686 56.986389,81.349747 
	C58.165119,80.099777 59.273228,79.187286 60.649399,78.118851 
	C63.077408,76.600235 64.323601,78.096840 65.506737,79.511543 
	C66.582748,80.798149 67.322723,82.335754 67.786987,83.924309 
	C71.573990,96.882309 78.278450,108.720711 82.221062,121.620300 
	C82.730820,123.288139 83.095314,125.149567 84.977974,126.495743 
	C85.167038,117.324982 84.788170,108.377296 85.419388,99.459747 
	C85.587173,97.089363 85.287270,94.086494 89.534439,94.768410 
	C89.877144,117.695625 89.925758,140.385788 89.899452,163.539490 
	C87.863571,165.392426 89.102913,168.058243 87.290359,169.812668 
z"/>
<path fill="#A4A1FF" opacity="1.000000" stroke="none" 
	d="
M89.905319,94.784332 
	C87.666176,94.964996 87.037422,96.097328 87.047050,98.151100 
	C87.092773,107.903717 87.050301,117.657066 86.971436,127.409607 
	C86.960114,128.810562 87.647537,130.867844 85.899239,131.391479 
	C83.545837,132.096344 84.304054,129.483368 83.557510,128.435364 
	C79.149727,122.247696 78.578262,114.457123 75.080261,107.913521 
	C70.920815,100.132568 68.763283,91.620087 65.604889,83.476334 
	C64.800537,81.402359 64.273392,78.906601 61.274292,78.029160 
	C62.215370,74.149574 65.960938,72.108765 67.850082,68.315002 
	C69.789963,66.438515 71.571175,64.855721 73.631622,63.106369 
	C77.384338,62.743481 78.339302,65.512070 79.098526,67.887131 
	C80.858070,73.391525 84.061714,78.301323 85.454758,83.942261 
	C85.848190,85.535393 86.496300,87.096344 88.115509,87.944267 
	C90.389267,89.134964 90.750237,91.139351 90.236435,93.763062 
	C90.038559,94.098450 89.982109,94.563202 89.905319,94.784332 
z"/>
<path fill="#887EFF" opacity="1.000000" stroke="none" 
	d="
M54.013939,33.021133 
	C54.029476,33.039474 53.767464,33.382149 53.767464,33.382149 
	C53.767464,33.382149 53.765667,33.085297 53.863686,33.028526 
	C53.961700,32.971760 53.998402,33.002796 54.013939,33.021133 
z"/>
<path fill="#AD9FFF" opacity="1.000000" stroke="none" 
	d="
M90.395363,93.893677 
	C89.909180,92.818268 90.382843,90.870102 89.003853,90.522530 
	C82.860703,88.974136 84.110229,83.087128 81.848671,79.260208 
	C78.844002,74.175842 78.370560,67.987930 74.183350,63.167126 
	C74.715248,59.607208 77.981522,58.202106 79.838898,55.276730 
	C81.790802,53.418983 83.584641,51.854679 85.657440,50.126389 
	C89.032578,53.160759 88.865166,57.767574 90.893036,61.562805 
	C93.412468,66.277985 95.231049,71.340874 98.974220,75.737854 
	C95.144928,81.424004 89.990303,86.164734 90.395363,93.893677 
z"/>
<path fill="#DA7DFF" opacity="1.000000" stroke="none" 
	d="
M228.086441,146.369904 
	C229.152863,146.241714 231.473724,146.380829 230.224808,147.578232 
	C227.420319,150.267014 229.002792,153.536606 228.035614,156.690277 
	C226.330750,157.229980 223.962372,156.812576 224.802750,159.747375 
	C225.341553,161.628983 223.754868,161.468964 222.976273,162.014984 
	C221.076965,163.346985 219.156204,164.604889 219.026611,167.614502 
	C217.906250,166.853912 214.778702,171.360962 214.980194,166.207214 
	C221.367889,160.898834 225.387711,154.299042 228.086441,146.369904 
z"/>
<path fill="#B899FF" opacity="1.000000" stroke="none" 
	d="
M164.143753,195.317627 
	C164.012299,195.172974 164.446533,195.013245 164.675339,194.978058 
	C164.962128,195.176926 165.020111,195.410965 165.078094,195.645004 
	C164.810471,195.584091 164.542831,195.523178 164.143753,195.317627 
z"/>
<path fill="#BF96FF" opacity="1.000000" stroke="none" 
	d="
M176.110596,188.268661 
	C176.171005,188.106186 176.335373,188.060013 176.746185,188.083817 
	C176.992630,188.153793 176.642929,188.445236 176.642929,188.445236 
	C176.642929,188.445236 176.214554,188.384964 176.110596,188.268661 
z"/>
<path fill="#BF96FF" opacity="1.000000" stroke="none" 
	d="
M180.487671,187.478516 
	C180.517380,187.464737 180.457947,187.492279 180.487671,187.478516 
z"/>
<path fill="#95A9FF" opacity="1.000000" stroke="none" 
	d="
M86.999329,170.413635 
	C87.536102,167.969223 85.604095,165.073730 89.448189,164.033722 
	C89.880234,171.800354 89.897934,179.598297 90.023125,187.394516 
	C90.048721,188.988831 89.425209,190.713608 90.712349,192.589996 
	C87.688873,193.329376 86.906258,191.678711 86.964355,188.867706 
	C87.088623,182.855927 87.001396,176.839783 86.999329,170.413635 
z"/>
<path fill="#95A9FF" opacity="1.000000" stroke="none" 
	d="
M95.075569,205.588287 
	C91.181030,206.111328 89.035873,204.081802 88.304512,200.336197 
	C88.018227,198.870010 88.735680,198.193008 90.468071,198.019684 
	C92.220535,200.406052 93.622108,202.815750 95.075569,205.588287 
z"/>
<path fill="#8082FF" opacity="1.000000" stroke="none" 
	d="
M113.934814,217.622986 
	C113.208656,217.849915 112.313606,217.758041 111.164856,217.431961 
	C111.862740,217.233231 112.814331,217.268707 113.934814,217.622986 
z"/>
<path fill="#C690FF" opacity="1.000000" stroke="none" 
	d="
M167.549042,89.090714 
	C167.251785,89.602043 166.920471,89.877106 166.589172,90.152168 
	C166.458069,89.884445 166.174942,89.584244 166.223923,89.354988 
	C166.380753,88.620949 166.759918,88.178101 167.549042,89.090714 
z"/>
</svg>